<svg width="86" height="25" viewBox="0 0 86 25" fill="none" xmlns="http://www.w3.org/2000/svg">
<path d="M53.1571 19.5508C48.2539 23.1041 41.1471 25 35.0282 25C26.4486 25 18.7247 21.88 12.8813 16.6907C12.4222 16.2827 12.8335 15.7266 13.3845 16.0443C19.6906 19.6519 27.488 21.8222 35.5424 21.8222C40.9745 21.8222 46.9501 20.7172 52.4446 18.4241C53.2746 18.0774 53.9688 18.9585 53.1571 19.5508Z" fill="#FFEB6B" style="fill:#FFEB6B;fill:color(display-p3 1.0000 0.9197 0.4208);fill-opacity:1;"/>
<path d="M55.1955 17.2577C54.5711 16.4705 51.0526 16.8857 49.4733 17.0699C48.9922 17.1277 48.9187 16.716 49.3521 16.4199C52.1544 14.4807 56.7528 15.0404 57.289 15.6905C57.8252 16.3441 57.1494 20.8761 54.516 23.0391C54.112 23.3714 53.7264 23.1944 53.9063 22.7539C54.4977 21.3022 55.8235 18.0485 55.1955 17.2577Z" fill="#FFEB6B" style="fill:#FFEB6B;fill:color(display-p3 1.0000 0.9197 0.4208);fill-opacity:1;"/>
<path d="M49.5835 2.73003V0.845009C49.5835 0.559728 49.8038 0.368338 50.0683 0.368338H58.6516C58.927 0.368338 59.1474 0.56334 59.1474 0.845009V2.45919C59.1437 2.73003 58.9124 3.08392 58.501 3.64365L54.0533 9.88733C55.706 9.84761 57.4506 10.0896 58.9491 10.9201C59.287 11.1079 59.3788 11.3823 59.4045 11.6532V13.6646C59.4045 13.939 59.096 14.2604 58.7728 14.0943C56.1321 12.7329 52.6245 12.5849 49.7047 14.1088C49.4072 14.2677 49.095 13.9499 49.095 13.6754V11.7651C49.095 11.4582 49.0987 10.9346 49.4108 10.4687L54.5638 3.20309H50.0793C49.8038 3.20309 49.5835 3.0117 49.5835 2.73003Z" fill="#252525" style="fill:#252525;fill:color(display-p3 0.1458 0.1458 0.1458);fill-opacity:1;"/>
<path d="M18.2729 14.4915H15.6616C15.4118 14.4735 15.2135 14.2893 15.1951 14.0546V0.877512C15.1951 0.613898 15.4192 0.404449 15.6983 0.404449H18.1334C18.3868 0.415276 18.5888 0.606673 18.6072 0.845009V2.56753H18.6549C19.2903 0.902787 20.484 0.12639 22.0926 0.12639C23.727 0.12639 24.7481 0.902787 25.4826 2.56753C26.1143 0.902787 27.5504 0.12639 29.0893 0.12639C30.1838 0.12639 31.3811 0.570562 32.112 1.56724C32.9384 2.67586 32.7694 4.28644 32.7694 5.6984L32.7658 14.0149C32.7658 14.2785 32.5417 14.4915 32.2626 14.4915H29.6549C29.3942 14.4735 29.1848 14.2677 29.1848 14.0149V7.03091C29.1848 6.4748 29.2362 5.08811 29.1113 4.56088C28.9167 3.67615 28.3327 3.42698 27.5761 3.42698C26.9444 3.42698 26.2833 3.84226 26.0152 4.50672C25.7471 5.17117 25.7728 6.2834 25.7728 7.03091V14.0149C25.7728 14.2785 25.5487 14.4915 25.2696 14.4915H22.6619C22.3975 14.4735 22.1918 14.2677 22.1918 14.0149L22.1881 7.03091C22.1881 5.56117 22.4342 3.39809 20.5795 3.39809C18.7027 3.39809 18.7761 5.507 18.7761 7.03091V14.0149C18.7761 14.2785 18.5521 14.4915 18.2729 14.4915Z" fill="#252525" style="fill:#252525;fill:color(display-p3 0.1458 0.1458 0.1458);fill-opacity:1;"/>
<path d="M66.5371 0.12639C70.4119 0.12639 72.509 3.39809 72.509 7.55814C72.509 11.5774 70.1915 14.766 66.5371 14.766C62.7321 14.766 60.6606 11.4943 60.6606 7.4173C60.6606 3.31504 62.7578 0.12639 66.5371 0.12639ZM66.5591 2.8167C64.6346 2.8167 64.5134 5.39506 64.5134 7.00202C64.5134 8.6126 64.4877 12.0504 66.5371 12.0504C68.5608 12.0504 68.6563 9.27705 68.6563 7.58703C68.6563 6.4748 68.6085 5.14589 68.267 4.09143C67.9731 3.1742 67.3892 2.8167 66.5591 2.8167Z" fill="#252525" style="fill:#252525;fill:color(display-p3 0.1458 0.1458 0.1458);fill-opacity:1;"/>
<path d="M77.5334 14.4915H74.9331C74.6723 14.4735 74.463 14.2677 74.463 14.0149L74.4593 0.834176C74.4813 0.592229 74.698 0.404449 74.9624 0.404449H77.3828C77.6105 0.415276 77.7978 0.566951 77.8493 0.772787V2.78781H77.897C78.6279 0.985844 79.6526 0.12639 81.4559 0.12639C82.6276 0.12639 83.7698 0.541673 84.5044 1.67918C85.1875 2.73364 85.1875 4.50672 85.1875 5.78145V14.0763C85.1581 14.3074 84.9414 14.4915 84.6843 14.4915H82.0656C81.8269 14.4735 81.6286 14.3002 81.6029 14.0763V6.91897C81.6029 5.47812 81.7718 3.3692 79.9685 3.3692C79.3331 3.3692 78.7491 3.7881 78.4589 4.42366C78.0917 5.22895 78.0439 6.03062 78.0439 6.91897V14.0149C78.0403 14.2785 77.8125 14.4915 77.5334 14.4915Z" fill="#252525" style="fill:#252525;fill:color(display-p3 0.1458 0.1458 0.1458);fill-opacity:1;"/>
<path d="M42.7411 8.19731V7.6412C40.8533 7.6412 38.8589 8.03842 38.8589 10.2268C38.8589 11.3354 39.4429 12.0865 40.4456 12.0865C41.1801 12.0865 41.8376 11.6424 42.2526 10.9201C42.7668 10.0318 42.7411 9.1976 42.7411 8.19731ZM45.3745 14.4554C45.2018 14.6071 44.9521 14.6179 44.7574 14.5168C43.8906 13.809 43.7364 13.4804 43.2589 12.8051C41.8265 14.2424 40.8129 14.6721 38.9544 14.6721C36.7581 14.6721 35.0466 13.3396 35.0466 10.671C35.0466 8.58732 36.1961 7.16814 37.8305 6.47479C39.2482 5.8609 41.2279 5.75256 42.7411 5.58284V5.25061C42.7411 4.64033 42.7888 3.9181 42.4252 3.39087C42.1057 2.91781 41.496 2.72281 40.9598 2.72281C39.9644 2.72281 39.0756 3.22476 38.8589 4.26477C38.8149 4.49588 38.6422 4.72339 38.4072 4.73422L35.8729 4.46699C35.6599 4.42005 35.4249 4.25032 35.4836 3.92893C36.0676 0.910012 38.8406 0 41.3234 0C42.5942 0 44.2543 0.332226 45.2569 1.27835C46.5277 2.44475 46.4065 4.00115 46.4065 5.69479V9.69594C46.4065 10.8985 46.9134 11.4257 47.3908 12.0757C47.5598 12.3068 47.5965 12.5849 47.3835 12.7582C46.8509 13.1951 45.9033 14.0077 45.3818 14.4627L45.3745 14.4554Z" fill="#252525" style="fill:#252525;fill:color(display-p3 0.1458 0.1458 0.1458);fill-opacity:1;"/>
<path d="M8.50699 8.19731V7.6412C6.61918 7.6412 4.62486 8.03842 4.62486 10.2268C4.62486 11.3354 5.20883 12.0865 6.2115 12.0865C6.94606 12.0865 7.60349 11.6424 8.01851 10.9201C8.5327 10.0318 8.50699 9.1976 8.50699 8.19731ZM11.1404 14.4554C10.9678 14.6071 10.718 14.6179 10.5234 14.5168C9.65658 13.809 9.50232 13.4804 9.02486 12.8051C7.59247 14.2424 6.57878 14.6721 4.72035 14.6721C2.52402 14.6721 0.8125 13.3396 0.8125 10.671C0.8125 8.58732 1.96208 7.16814 3.59647 6.47479C5.01417 5.8609 6.9938 5.75256 8.50699 5.58284V5.25061C8.50699 4.64033 8.55474 3.9181 8.19113 3.39087C7.8716 2.91781 7.26192 2.72281 6.72569 2.72281C5.73037 2.72281 4.84155 3.22476 4.62486 4.26477C4.58078 4.49588 4.40816 4.72339 4.1731 4.73422L1.63888 4.46699C1.42586 4.42005 1.1908 4.25032 1.24956 3.92893C1.83354 0.910012 4.60649 0 7.0893 0C8.36008 0 10.0202 0.332226 11.0229 1.27835C12.2936 2.44475 12.1724 4.00115 12.1724 5.69479V9.69594C12.1724 10.8985 12.6793 11.4257 13.1567 12.0757C13.3257 12.3068 13.3624 12.5849 13.1494 12.7582C12.6168 13.1951 11.6693 14.0077 11.1477 14.4627L11.1404 14.4554Z" fill="#252525" style="fill:#252525;fill:color(display-p3 0.1458 0.1458 0.1458);fill-opacity:1;"/>
</svg>
