<svg width="168" height="35" viewBox="0 0 168 35" fill="none" xmlns="http://www.w3.org/2000/svg">
<path fill-rule="evenodd" clip-rule="evenodd" d="M5.55036 6.48152L17.1581 34.704H19.1625L33.6558 0.577892L31.1018 0.571809L20.4828 25.5854L12.6088 6.49673C11.5454 3.87796 10.1803 2.14124 8.51354 1.28657C6.84974 0.43494 4.91411 0.00608308 2.70965 0L0.60376 0.0973292V1.11624C1.63729 1.25311 2.52744 1.71543 3.27719 2.50014C4.02695 3.28486 4.78268 4.61097 5.54737 6.48152H5.55036ZM147.198 18.6203L140.109 7.43656C139.243 6.00704 138.18 4.74784 136.913 3.65593C135.647 2.56402 134.479 1.94963 133.412 1.81276V0.793842L138.923 0.806008C140.626 0.809049 142.17 1.35653 143.553 2.44844C144.936 3.54035 146.11 4.86646 147.075 6.43285L151.418 13.2763L161.108 0.854672L164.364 0.860756L152.864 15.5727L160.699 27.8787C161.565 29.3083 162.629 30.5675 163.895 31.6594C165.162 32.7513 166.33 33.3657 167.396 33.5026V34.5215L161.885 34.5093C160.182 34.5063 158.638 33.9588 157.255 32.8669C155.872 31.775 154.698 30.4488 153.733 28.8825L148.691 20.9167L138.096 34.4576L134.84 34.4515L147.192 18.6203H147.198ZM127.889 7.71638C126.688 7.71638 125.762 7.33923 125.111 6.58797C124.463 5.83975 124.137 4.92121 124.14 3.83234C124.14 2.94725 124.403 2.25074 124.92 1.7428C125.44 1.23486 126.1 0.979376 126.9 0.982417C128.101 0.982417 129.027 1.35957 129.678 2.11083C130.327 2.85905 130.652 3.77759 130.649 4.86646C130.649 5.75155 130.386 6.44806 129.87 6.956C129.35 7.46394 128.69 7.71943 127.889 7.71638ZM124.615 17.0904C124.618 15.3567 124.388 14.0732 123.922 13.2398C123.456 12.4064 122.521 11.9867 121.12 11.9837H120.619L120.622 10.4538L126.632 10.4659C127.832 10.4659 128.752 10.6758 129.386 11.0834C130.019 11.494 130.467 12.1662 130.733 13.0999C130.999 14.0367 131.13 15.3689 131.124 17.1026L131.088 34.4393L124.579 34.4241L124.615 17.0874V17.0904ZM110.964 7.37269C110.967 5.63901 110.737 4.35548 110.271 3.5221C109.805 2.68872 108.87 2.26899 107.469 2.26595H106.968L106.971 0.736052L112.981 0.748219C114.181 0.748219 115.101 0.958085 115.735 1.36565C116.368 1.77626 116.816 2.44844 117.082 3.38219C117.348 4.31899 117.479 5.65118 117.473 7.38486L117.416 34.412L110.908 34.3968L110.964 7.37269ZM98.0452 7.34532C98.0482 5.61164 97.8182 4.32811 97.3522 3.49473C96.8862 2.66135 95.9513 2.24161 94.5503 2.23857H94.0485L94.0515 0.708679L100.062 0.720845C101.262 0.720845 102.182 0.930711 102.816 1.33828C103.449 1.74888 103.9 2.42106 104.163 3.35482C104.429 4.29161 104.56 5.62381 104.554 7.35748L104.497 34.3846L97.9885 34.3694L98.0452 7.34532ZM82.6618 34.8469C80.3587 34.8408 78.3395 34.2934 76.607 33.2014C74.8745 32.1095 73.5333 30.6192 72.5864 28.7304C71.6395 26.8416 71.1675 24.7064 71.1735 22.3279C71.1795 19.6757 71.6604 17.4159 72.6162 15.5483C73.5721 13.6808 74.8864 12.2635 76.5562 11.2993C78.226 10.3351 80.1138 9.85459 82.2167 9.85763C84.2867 9.86067 86.1567 10.2895 87.8234 11.1442C89.4902 11.9989 90.8075 13.2003 91.7724 14.7484C92.7372 16.2966 93.2181 18.0759 93.2121 20.0802C93.2121 20.725 93.1763 21.4581 93.1076 22.2732L93.006 23.2921L77.9332 23.2586C77.9273 26.4888 78.4052 28.8429 79.37 30.3241C80.3348 31.8054 81.685 32.5475 83.4205 32.5505C85.0216 32.5536 86.3687 32.1916 87.453 31.4617C88.5403 30.7317 89.5858 29.6915 90.5895 28.3319L92.1398 29.509C91.169 31.0359 89.9562 32.3103 88.5015 33.3261C87.0468 34.342 85.1022 34.85 82.6648 34.8439L82.6618 34.8469ZM67.9385 10.8492C68.5389 11.2932 68.972 11.7768 69.2378 12.3061C69.5037 12.8323 69.6381 13.1151 69.6381 13.1486L67.0812 15.1317C66.8482 14.8245 66.5495 14.5021 66.1821 14.1614C65.4502 13.4801 64.5989 13.1394 63.6311 13.1364C61.6955 13.1334 60.2079 13.6565 59.1714 14.7089L59.27 15.4754C59.3357 16.0867 59.3685 16.6494 59.3656 17.1573L59.3297 34.2903L52.8179 34.2751L52.8537 16.9383C52.8567 15.2047 52.6357 13.9211 52.1846 13.0877C51.7366 12.2544 50.8106 11.8346 49.4066 11.8316H48.9048L48.9078 10.3017L53.8663 10.3139C55.0014 10.3139 55.8946 10.4629 56.5458 10.7518C57.1969 11.0408 57.7047 11.5274 58.0692 12.2087C59.8763 10.615 61.9792 9.82113 64.3838 9.82721C65.8206 9.83025 67.0035 10.1739 67.9385 10.8553V10.8492ZM42.7066 7.53085C41.5058 7.53085 40.5798 7.1537 39.9286 6.40244C39.2804 5.65422 38.9548 4.73568 38.9578 3.64681C38.9578 2.76172 39.2207 2.0652 39.7375 1.55727C40.2572 1.04933 40.9144 0.793842 41.7179 0.796883C42.9187 0.796883 43.8447 1.17403 44.4959 1.92529C45.1441 2.67351 45.4697 3.59206 45.4667 4.68093C45.4667 5.56602 45.2038 6.26253 44.6871 6.77047C44.1673 7.2784 43.5101 7.53389 42.7066 7.53085ZM39.4328 16.9079C39.4358 15.1742 39.2058 13.8907 38.7398 13.0573C38.2738 12.2239 37.3388 11.8042 35.9379 11.8012H35.4361L35.4391 10.2713L41.4491 10.2834C42.6499 10.2834 43.5699 10.4933 44.2032 10.9009C44.8364 11.3115 45.2845 11.9837 45.5503 12.9174C45.8162 13.8512 45.9476 15.1864 45.9416 16.9201L45.9058 34.2569L39.3969 34.2416L39.4328 16.9049V16.9079ZM86.4464 20.9684L77.9332 20.9501C77.9392 17.8234 78.3365 15.5727 79.1251 14.1949C79.9137 12.8201 80.9412 12.1327 82.2077 12.1357C83.5758 12.1388 84.6273 12.811 85.3591 14.1553C86.0909 15.4997 86.4524 17.7687 86.4464 20.9653V20.9684Z" fill="white" style="fill:white;fill-opacity:1;"/>
</svg>
