<svg width="1918" height="1001" viewBox="0 0 1918 1001" fill="none" xmlns="http://www.w3.org/2000/svg">
<rect width="1918" height="1001" fill="#0D0D0D" style="fill:#0D0D0D;fill:color(display-p3 0.0500 0.0500 0.0500);fill-opacity:1;"/>
<path d="M122.699 436.744L122.701 436.745C137.067 445.284 152.991 449.551 170.461 449.551H282.249C295.251 449.551 307.447 447.113 318.833 442.233L318.835 442.232C330.345 437.222 340.371 430.448 348.907 421.912C357.578 413.242 364.352 403.216 369.228 391.838L369.229 391.836C374.108 380.316 376.546 368.054 376.546 355.052C376.546 337.716 372.279 321.927 363.74 307.696C355.338 293.332 343.948 282.55 329.575 275.363C315.349 268.182 299.57 264.596 282.249 264.596H171.876C167.87 264.596 164.365 262.861 161.347 259.321C158.445 255.624 157.013 251.757 157.013 247.711C157.013 243.657 158.382 239.926 161.146 236.503C164.031 232.963 167.474 231.09 171.488 230.826H281.02C285.208 231.091 288.654 232.658 291.388 235.523L291.388 235.523L291.396 235.531C294.106 238.241 295.495 242.14 295.495 247.307V247.807H295.995H364.321H364.821V247.307C364.821 230.786 361.029 216.141 353.431 203.387C345.841 190.513 335.674 180.345 322.933 172.89C310.185 165.296 296.081 161.5 280.632 161.5H171.674C156.224 161.5 142.12 165.296 129.371 172.891C116.632 180.48 106.465 190.647 98.8751 203.387C91.2802 216.135 87.4844 230.24 87.4844 245.689C87.4844 257.343 89.6528 268.259 93.9932 278.432L93.9955 278.437C98.4665 288.598 104.497 297.543 112.088 305.269L112.091 305.272C119.818 313 128.766 319.033 138.932 323.37L138.934 323.371C149.239 327.71 160.154 329.879 171.674 329.879C209.206 329.879 237.473 329.896 256.474 329.929C265.975 329.946 273.159 329.967 278.027 329.993C280.46 330.005 282.314 330.019 283.589 330.034C284.226 330.041 284.717 330.049 285.063 330.056C285.236 330.06 285.371 330.064 285.469 330.068C285.516 330.07 285.55 330.072 285.573 330.073C285.597 330.075 285.609 330.076 285.613 330.076C291.969 331.137 297.113 333.979 301.073 338.599L301.079 338.605C305.173 343.228 307.22 348.702 307.22 355.052C307.22 361.926 304.78 367.865 299.884 372.895C294.993 377.784 289.057 380.225 282.047 380.225C244.178 380.225 215.642 380.191 196.439 380.124C186.837 380.09 179.569 380.048 174.635 379.997C172.168 379.972 170.286 379.945 168.988 379.915C168.338 379.9 167.838 379.885 167.484 379.87C167.307 379.862 167.17 379.854 167.071 379.847C167.036 379.844 167.009 379.841 166.989 379.839C166.944 379.835 166.934 379.833 166.943 379.835L166.918 379.829L166.891 379.825C161.202 379.031 156.454 376.655 152.627 372.695L152.621 372.689C147.777 367.845 145.288 359.455 145.288 347.37V346.87H144.788H76.4619H75.9619V347.37C75.9619 369.8 80.1502 388.223 88.5635 402.607L88.5664 402.612C97.0988 416.833 108.478 428.212 122.699 436.744ZM602.856 449.551H603.356V449.051V230.826H739.307H739.807V230.326V162V161.5H739.307H397.878H397.378V162V230.326V230.826H397.878H534.03V449.051V449.551H534.53H602.856ZM1067.6 449.551H1068.1V449.051V380.522V380.022H1067.6H849.573V329.879H1067.6H1068.1V329.379V261.053V260.553H1067.6H849.573V230.826H1067.6H1068.1V230.326V162V161.5H1067.6H780.747H780.247V162V449.051V449.551H780.747H1067.6ZM1455.52 449.551H1456.25L1455.98 448.868L1343.39 161.817L1343.26 161.5H1342.92H1209.91H1209.57L1209.44 161.817L1096.85 448.868L1096.58 449.551H1097.31H1166.85H1167.19L1167.32 449.233L1197.31 372.734H1355.52L1385.51 449.233L1385.64 449.551H1385.98H1455.52ZM1841.02 449.551H1841.52V449.051V162V161.5H1841.02H1768.65H1768.37L1768.22 161.734L1671.95 314.931H1659.16L1565.1 161.738L1564.96 161.5H1564.68H1492.31H1491.81V162V449.051V449.551H1492.31H1560.64H1561.14V449.051V283.812L1624.09 384.023L1624.24 384.257H1624.51H1706.59H1706.86L1707.01 384.023L1772.19 280.175V449.051V449.551H1772.69H1841.02ZM1252.9 230.826H1299.93L1328.24 303.206H1224.39L1252.9 230.826Z" stroke="url(#paint0_linear_321_463)" style=""/>
<path d="M864.119 596.083C849.959 610.243 838.793 626.738 830.62 645.565L830.619 645.568L864.473 596.437M864.119 596.083L864.473 596.437M864.119 596.083C864.118 596.084 864.118 596.085 864.117 596.085L864.473 596.437M864.119 596.083C878.279 581.778 894.775 570.611 913.604 562.583C932.439 554.552 952.586 550.539 974.04 550.539H1031.22C1059.83 550.539 1085.89 557.545 1109.4 571.561M864.473 596.437C878.587 582.177 895.029 571.046 913.8 563.043C932.57 555.04 952.65 551.039 974.04 551.039H1031.22C1059.74 551.039 1085.72 558.023 1109.14 571.992M1109.4 571.561L1109.14 571.992M1109.4 571.561C1109.4 571.561 1109.4 571.562 1109.4 571.562L1109.14 571.992M1109.4 571.561L1109.14 571.992M143.772 861.47H144.272V860.97V754.522H291.972C306.005 754.522 319.168 751.89 331.456 746.624L331.459 746.623C343.881 741.216 354.773 733.906 364.131 724.695L364.134 724.692C373.492 715.334 380.803 704.513 386.066 692.233L386.067 692.231C391.332 679.798 393.964 666.563 393.964 652.53C393.964 633.675 389.359 616.561 380.143 601.202C371.079 585.706 358.796 573.35 343.301 564.141C327.941 554.926 310.828 550.32 291.972 550.32H70H69.5V550.82V860.97V861.47H70H143.772ZM807.288 861.47H808.546L807.631 860.607L691.367 750.85C703.091 748.613 716.678 739.777 732.121 724.475L732.126 724.471C741.337 715.113 748.575 704.293 753.837 692.014C759.248 679.582 761.953 666.346 761.953 652.312C761.953 633.601 757.347 616.559 748.131 601.2C738.922 585.706 726.568 573.351 711.074 564.142C695.714 554.926 678.673 550.32 659.961 550.32H437.989H437.489V550.82V860.97V861.47H437.989H511.762H512.262V860.97V754.304H588.609L701.961 861.334L702.105 861.47H702.304H807.288ZM1165.67 627.83C1165.67 627.83 1165.67 627.829 1165.67 627.829L1165.24 628.085L1165.67 627.83ZM1174.43 766.444C1174.43 766.443 1174.43 766.443 1174.43 766.442L1173.97 766.245L1174.43 766.444ZM1062.46 780.408L1062.46 780.409C1052.77 784.6 1042.36 786.698 1031.22 786.698H974.04C959.138 786.698 945.549 783.082 933.262 775.854C921.111 768.477 911.423 758.715 904.191 746.566C896.962 734.277 893.347 720.76 893.347 706.004C893.347 694.865 895.444 684.456 899.635 674.773L899.636 674.771C903.831 664.934 909.616 656.33 916.991 648.955C924.366 641.58 932.897 635.795 942.588 631.601C952.418 627.408 962.901 625.311 974.04 625.311H1031.22C1046.13 625.311 1059.64 628.927 1071.78 636.154L1071.79 636.155C1084.08 643.387 1093.84 653.148 1101.07 665.443L1101.08 665.445C1108.3 677.586 1111.92 691.102 1111.92 706.004C1111.92 717.144 1109.82 727.626 1105.63 737.456C1101.43 747.147 1095.65 755.679 1088.27 763.054C1080.9 770.428 1072.3 776.213 1062.46 780.408ZM1426.06 766.308H1426.56V765.808V692.036V691.536H1426.06H1234.21H1233.71V692.036V765.808V766.308H1234.21H1426.06ZM1847.31 861.47H1848.25L1847.72 860.69L1731.79 689.196L1823.71 551.316L1824.23 550.539H1823.3H1738.17H1737.9L1737.75 550.766L1661.73 667.963H1639.36L1563.33 550.766L1563.18 550.539H1562.91H1477.79H1476.85L1477.37 551.316L1569.29 689.196L1453.37 860.69L1452.84 861.47H1453.78H1538.9H1539.17L1539.32 861.25L1619.27 742.736H1681.82L1761.77 861.25L1761.92 861.47H1762.18H1847.31ZM311.262 671.602C305.973 676.891 299.553 679.531 291.972 679.531H144.272V625.311H291.972C299.553 625.311 305.973 627.952 311.262 633.24C316.553 638.531 319.191 644.879 319.191 652.312C319.191 659.893 316.551 666.313 311.262 671.602ZM679.251 671.602C673.963 676.891 667.543 679.531 659.961 679.531H512.262V625.311H659.961C667.543 625.311 673.963 627.952 679.251 633.24C684.542 638.531 687.181 644.879 687.181 652.312C687.181 659.893 684.54 666.313 679.251 671.602Z" stroke="url(#paint1_linear_321_463)" style=""/>
<defs>
<linearGradient id="paint0_linear_321_463" x1="1889" y1="323.881" x2="106.078" y2="323.881" gradientUnits="userSpaceOnUse">
<stop stop-color="white" stop-opacity="0" style="stop-color:none;stop-opacity:0;"/>
<stop offset="1" stop-color="white" style="stop-color:white;stop-opacity:1;"/>
</linearGradient>
<linearGradient id="paint1_linear_321_463" x1="1847" y1="725.823" x2="70" y2="725.823" gradientUnits="userSpaceOnUse">
<stop stop-color="white" style="stop-color:white;stop-opacity:1;"/>
<stop offset="0.499133" stop-color="white" stop-opacity="0.507788" style="stop-color:white;stop-opacity:0.507788;"/>
<stop offset="1" stop-color="white" stop-opacity="0" style="stop-color:none;stop-opacity:0;"/>
</linearGradient>
</defs>
</svg>
