<svg width="960" height="960" viewBox="0 0 960 960" fill="none" xmlns="http://www.w3.org/2000/svg">
<mask id="path-1-inside-1_234_788" fill="white">
<path d="M0 0H960V960H0V0Z"/>
</mask>
<path d="M0 1H960V-1H0V1Z" fill="white" style="fill:white;fill-opacity:1;" mask="url(#path-1-inside-1_234_788)"/>
<path d="M69.6699 74.9121H60.0723L48.5938 49.9512H55.6426L64.0449 68.9707H65.6797L74.0996 49.9512H81.1484L69.6699 74.9121ZM90.6406 74.9121H84.6992V49.9512H90.6406V74.9121ZM124.355 74.9121H115.9L106.76 66.2812H100.555V74.9121H94.6133V49.9336H112.49C113.99 49.9336 115.355 50.3027 116.586 51.041C117.828 51.7793 118.818 52.7695 119.557 54.0117C120.295 55.2422 120.664 56.6074 120.664 58.1074C120.664 59.2324 120.447 60.293 120.014 61.2891C119.592 62.2734 119.012 63.1406 118.273 63.8906C116.996 65.1562 115.883 65.8652 114.934 66.0176L124.355 74.9121ZM112.49 60.3398C113.111 60.3398 113.639 60.123 114.072 59.6895C114.506 59.2559 114.723 58.7285 114.723 58.1074C114.723 57.498 114.506 56.9766 114.072 56.543C113.639 56.1094 113.111 55.8926 112.49 55.8926H100.555V60.3398H112.49ZM152.111 74.9121H127.168V49.9512H152.111V55.8926H133.109V58.5645H152.111V64.5059H133.109V68.9531H152.111V74.9121ZM181.045 74.9121H156.102V49.9512H162.043V68.9531H181.045V74.9121ZM209.838 74.9121H184.895V49.9512H190.836V68.9531H209.838V74.9121ZM219.629 74.9121H213.688V49.9512H219.629V74.9121ZM253.537 74.9121H246.682L240.23 65.3496H235.15L228.699 74.9121H221.844L231.195 61.0781L223.777 49.9512H230.633L236.768 59.4082H238.613L244.748 49.9512H251.604L244.186 61.0781L253.537 74.9121ZM286.637 74.9121H276.916C275.404 74.9121 274.027 74.543 272.785 73.8047C271.555 73.0664 270.57 72.082 269.832 70.8516C269.105 69.6094 268.742 68.0156 268.742 66.0703H274.684C274.684 67.125 274.9 67.8691 275.334 68.3027C275.674 68.6543 276.096 68.8652 276.6 68.9355C276.693 68.959 280.033 68.9707 286.619 68.9707C287.24 68.9707 287.768 68.7539 288.201 68.3203C288.635 67.875 288.852 67.3477 288.852 66.7383C288.852 66.1758 288.67 65.6895 288.307 65.2793C287.955 64.8691 287.498 64.6172 286.936 64.5234C286.854 64.5117 283.549 64.5059 277.021 64.5059C276.025 64.5059 275.082 64.3184 274.191 63.9434C273.312 63.5684 272.539 63.0469 271.871 62.3789C271.215 61.7109 270.693 60.9375 270.307 60.0586C269.932 59.1797 269.744 58.2363 269.744 57.2285C269.744 55.8926 270.072 54.6738 270.729 53.5723C271.385 52.4707 272.264 51.5918 273.365 50.9355C274.467 50.2793 275.686 49.9512 277.021 49.9512H286.496C287.832 49.9512 289.051 50.2793 290.152 50.9355C291.254 51.5801 292.133 52.459 292.789 53.5723C293.445 54.6738 293.773 55.9395 293.773 57.3691H287.832C287.832 56.9121 287.709 56.5605 287.463 56.3145C287.217 56.0566 286.906 55.916 286.531 55.8926H277.004C276.641 55.916 276.33 56.0859 276.072 56.4023C275.826 56.707 275.703 57.041 275.703 57.4043C275.703 57.7676 275.832 58.1133 276.09 58.4414C276.359 58.7578 276.676 58.916 277.039 58.916H286.637C288.137 58.916 289.502 59.2266 290.732 59.8477C291.975 60.4688 292.959 61.4004 293.686 62.6426C294.424 63.873 294.793 65.2383 294.793 66.7383C294.793 67.8633 294.582 68.9238 294.16 69.9199C293.738 70.9043 293.152 71.7715 292.402 72.5215C291.664 73.2598 290.797 73.8457 289.801 74.2793C288.816 74.7012 287.762 74.9121 286.637 74.9121ZM314.516 74.9121H308.574V55.8926H296.691V49.9512H326.381V55.8926H314.516V74.9121ZM354.928 74.9121H329.984V49.9512H354.928V55.8926H335.926V58.5645H354.928V64.5059H335.926V68.9531H354.928V74.9121ZM388.66 74.9121H382.613L379.994 68.2324H366.178L363.559 74.9121H357.512L367.303 49.9512H378.869L388.66 74.9121ZM377.656 62.2734L375.16 55.8926H371.012L368.498 62.2734H377.656ZM422.182 74.9121H416.24V60.0762L410.492 69.2344H403.355L397.801 60.3926V74.9121H391.859V49.9512H398.152L406.344 63.293H407.504L415.889 49.9512H422.182V74.9121ZM432.184 74.9121H426.242V49.9336H444.119C445.631 49.9336 447.002 50.3027 448.232 51.041C449.475 51.7793 450.459 52.7695 451.186 54.0117C451.924 55.2422 452.293 56.6133 452.293 58.125C452.293 59.25 452.082 60.3105 451.66 61.3066C451.238 62.291 450.652 63.1582 449.902 63.9082C449.152 64.6465 448.279 65.2324 447.283 65.666C446.299 66.0879 445.244 66.2988 444.119 66.2988H432.184V74.9121ZM444.119 60.3398C444.74 60.3398 445.268 60.123 445.701 59.6895C446.135 59.2559 446.352 58.7285 446.352 58.1074C446.352 57.498 446.135 56.9766 445.701 56.543C445.268 56.1094 444.74 55.8926 444.119 55.8926H432.184V60.3398H444.119ZM485.621 74.9121H477.166L468.025 66.2812H461.82V74.9121H455.879V49.9336H473.756C475.256 49.9336 476.621 50.3027 477.852 51.041C479.094 51.7793 480.084 52.7695 480.822 54.0117C481.561 55.2422 481.93 56.6074 481.93 58.1074C481.93 59.2324 481.713 60.293 481.279 61.2891C480.857 62.2734 480.277 63.1406 479.539 63.8906C478.262 65.1562 477.148 65.8652 476.199 66.0176L485.621 74.9121ZM473.756 60.3398C474.377 60.3398 474.904 60.123 475.338 59.6895C475.771 59.2559 475.988 58.7285 475.988 58.1074C475.988 57.498 475.771 56.9766 475.338 56.543C474.904 56.1094 474.377 55.8926 473.756 55.8926H461.82V60.3398H473.756ZM503.656 74.9121H499.051C496.754 74.9121 494.662 74.3496 492.775 73.2246C490.889 72.0996 489.383 70.5938 488.258 68.707C487.133 66.8203 486.57 64.7285 486.57 62.4316C486.57 60.709 486.893 59.0918 487.537 57.5801C488.193 56.0684 489.09 54.7441 490.227 53.6074C491.363 52.459 492.688 51.5625 494.199 50.918C495.711 50.2734 497.328 49.9512 499.051 49.9512H503.656C505.953 49.9512 508.045 50.5137 509.932 51.6387C511.818 52.752 513.324 54.2578 514.449 56.1562C515.574 58.043 516.137 60.1348 516.137 62.4316C516.137 64.1543 515.809 65.7715 515.152 67.2832C514.508 68.7832 513.617 70.1074 512.48 71.2559C511.344 72.3926 510.02 73.2891 508.508 73.9453C506.996 74.5898 505.379 74.9121 503.656 74.9121ZM503.656 68.9707C504.559 68.9707 505.402 68.8008 506.188 68.4609C506.984 68.1211 507.682 67.6523 508.279 67.0547C508.877 66.457 509.346 65.7656 509.686 64.9805C510.025 64.1836 510.195 63.334 510.195 62.4316C510.195 61.2246 509.902 60.1289 509.316 59.1445C508.73 58.1484 507.939 57.3574 506.943 56.7715C505.959 56.1855 504.863 55.8926 503.656 55.8926H499.051C498.148 55.8926 497.299 56.0625 496.502 56.4023C495.717 56.7422 495.025 57.2109 494.428 57.8086C493.83 58.4062 493.361 59.1035 493.021 59.9004C492.682 60.6855 492.512 61.5293 492.512 62.4316C492.512 63.627 492.805 64.7227 493.391 65.7188C493.977 66.7031 494.762 67.4941 495.746 68.0918C496.742 68.6777 497.844 68.9707 499.051 68.9707H503.656ZM535.455 67.248H520.004V61.3066H535.455V67.248ZM569.381 74.9121H562.525L556.074 65.3496H550.994L544.543 74.9121H537.688L547.039 61.0781L539.621 49.9512H546.477L552.611 59.4082H554.457L560.592 49.9512H567.447L560.029 61.0781L569.381 74.9121Z" fill="white" style="fill:white;fill-opacity:1;"/>
<path d="M86.4189 658V625.297C74.1554 625.297 50 617.122 50 588.878C50 560.635 71.1824 552.459 81.2162 552.459C78.2432 538.71 81.2162 516.041 105.743 516.041C130.27 516.04 136.959 548 120.608 561.378M130.642 658V614.52C145.507 614.52 160 601.514 160 580.703C160 558.777 142.905 546.142 130.116 546.142" stroke="white" style="stroke:white;stroke-opacity:1;" stroke-width="10"/>
<path d="M102.102 757.824H90.2188V719.785H61.8828V757.824H50V707.902H102.102V757.824ZM143.023 757.824H133.812C129.219 757.824 125.035 756.699 121.262 754.449C117.488 752.199 114.477 749.188 112.227 745.414C109.977 741.641 108.852 737.457 108.852 732.863C108.852 729.418 109.496 726.184 110.785 723.16C112.098 720.137 113.891 717.488 116.164 715.215C118.438 712.918 121.086 711.125 124.109 709.836C127.133 708.547 130.367 707.902 133.812 707.902H143.023C147.617 707.902 151.801 709.027 155.574 711.277C159.348 713.504 162.359 716.516 164.609 720.312C166.859 724.086 167.984 728.27 167.984 732.863C167.984 736.309 167.328 739.543 166.016 742.566C164.727 745.566 162.945 748.215 160.672 750.512C158.398 752.785 155.75 754.578 152.727 755.891C149.703 757.18 146.469 757.824 143.023 757.824ZM143.023 745.941C144.828 745.941 146.516 745.602 148.086 744.922C149.68 744.242 151.074 743.305 152.27 742.109C153.465 740.914 154.402 739.531 155.082 737.961C155.762 736.367 156.102 734.668 156.102 732.863C156.102 730.449 155.516 728.258 154.344 726.289C153.172 724.297 151.59 722.715 149.598 721.543C147.629 720.371 145.438 719.785 143.023 719.785H133.812C132.008 719.785 130.309 720.125 128.715 720.805C127.145 721.484 125.762 722.422 124.566 723.617C123.371 724.812 122.434 726.207 121.754 727.801C121.074 729.371 120.734 731.059 120.734 732.863C120.734 735.254 121.32 737.445 122.492 739.438C123.664 741.406 125.234 742.988 127.203 744.184C129.195 745.355 131.398 745.941 133.812 745.941H143.023ZM208.555 757.824H196.672V719.785H172.906V707.902H232.285V719.785H208.555V757.824ZM268.672 757.824H239.598V745.941H268.672C271.883 745.941 274.672 744.934 277.039 742.918C279.43 740.879 280.824 738.816 281.223 736.73H250.812L239.492 707.902H251.586L258.23 724.848H281.75V707.902H293.633V732.863C293.633 736.895 292.754 740.621 290.996 744.043C289.238 747.465 286.859 750.336 283.859 752.656C281.75 754.273 279.406 755.539 276.828 756.453C274.25 757.367 271.531 757.824 268.672 757.824ZM369.148 757.824H356.703L348.547 737.012H340.109V757.824H328.227V737.012H319.789L311.633 757.824H299.188L310.262 729.594L301.754 707.902H314.164L320.949 725.129H328.227V707.902H340.109V725.129H347.387L354.172 707.902H366.582L358.074 729.594L369.148 757.824ZM428.07 757.824H416.188V737.012H387.852V757.824H375.969V707.902H387.852V725.129H416.188V707.902H428.07V757.824ZM485.973 757.824H436.086V707.902H485.973V719.785H447.969V725.129H485.973V737.012H447.969V745.906H485.973V757.824ZM500.422 766.824H493.953L497.293 758.598C496.801 758.41 496.145 757.742 495.324 756.594C494.504 755.445 494.094 754.133 494.094 752.656C494.094 750.781 494.762 749.176 496.098 747.84C497.434 746.504 499.051 745.836 500.949 745.836C502.824 745.836 504.43 746.504 505.766 747.84C507.102 749.176 507.77 750.781 507.77 752.656C507.77 754.32 507.277 755.75 506.293 756.945L500.422 766.824ZM109.484 833.824H97.3906L92.1523 820.465H64.5195L59.2812 833.824H47.1875L66.7695 783.902H89.9023L109.484 833.824ZM87.4766 808.547L82.4844 795.785H74.1875L69.1602 808.547H87.4766ZM175.367 833.824H162.641L147.734 795.785H140.703L125.797 833.824H113.07L132.652 783.902H155.785L175.367 833.824ZM231.652 833.824H181.766V783.902H231.652V795.785H193.648V801.129H231.652V813.012H193.648V821.906H231.652V833.824ZM317.328 833.824H305.445V813.012H277.109V833.824H265.227V783.902H277.109V801.129H305.445V783.902H317.328V833.824ZM351.048 834H327.648V827.808L333.912 824.928V791.664L327.648 788.784V782.592H351.048V788.784L344.784 791.664V824.928L351.048 827.808V834ZM421.18 833.824H408.734L400.578 813.012H392.141V833.824H380.258V813.012H371.82L363.664 833.824H351.219L362.293 805.594L353.785 783.902H366.195L372.98 801.129H380.258V783.902H392.141V801.129H399.418L406.203 783.902H418.613L410.105 805.594L421.18 833.824ZM480.102 833.824H468.219V813.012H439.883V833.824H428V783.902H439.883V801.129H468.219V783.902H480.102V833.824ZM538.004 833.824H488.117V783.902H538.004V795.785H500V801.129H538.004V813.012H500V821.906H538.004V833.824ZM85.7539 909.824H50V859.902H73.3438C74.8906 859.902 76.3672 860.125 77.7734 860.57C80.0469 861.32 82.0039 862.527 83.6445 864.191C85.3086 865.832 86.5039 867.789 87.2305 870.062C87.6992 871.469 87.9336 872.934 87.9336 874.457C87.9336 876.004 87.8867 876.895 87.793 877.129C88.8477 877.129 90.3242 877.562 92.2227 878.43C94.1445 879.273 95.8438 880.434 97.3203 881.91C98.8203 883.41 99.9922 885.156 100.836 887.148C101.68 889.117 102.102 891.227 102.102 893.477C102.102 896.477 101.363 899.219 99.8867 901.703C98.4336 904.164 96.4648 906.133 93.9805 907.609C91.5195 909.086 88.7773 909.824 85.7539 909.824ZM73.3438 877.832C74.0938 877.832 74.7266 877.574 75.2422 877.059C75.7812 876.52 76.0508 875.77 76.0508 874.809C76.0508 873.848 75.7812 873.109 75.2422 872.594C74.7266 872.055 74.0938 871.785 73.3438 871.785H61.8828V877.832H73.3438ZM85.7539 897.941C86.9961 897.941 88.0508 897.508 88.918 896.641C89.7852 895.75 90.2188 894.695 90.2188 893.477C90.2188 892.352 89.8555 891.379 89.1289 890.559C88.4258 889.738 87.5117 889.234 86.3867 889.047C86.1992 889.023 78.0312 889.012 61.8828 889.012V897.941H85.7539ZM134.134 910H110.734V903.808L116.998 900.928V867.664L110.734 864.784V858.592H134.134V864.784L127.87 867.664V900.928L134.134 903.808V910ZM201.699 917.629H189.816V909.684H145.484V917.629H133.602V897.801H143.41L158.316 859.762H193.438V897.801H201.699V917.629ZM181.555 897.801V871.645H165.734L155.469 897.801H181.555ZM260.445 909.824H248.562V871.785H220.227V909.824H208.344V859.902H260.445V909.824ZM328.086 909.824H315.992L310.754 896.465H283.121L277.883 909.824H265.789L285.371 859.902H308.504L328.086 909.824ZM306.078 884.547L301.086 871.785H292.789L287.762 884.547H306.078ZM346.367 909.824H334.484V859.867H370.238C373.262 859.867 376.004 860.605 378.465 862.082C380.949 863.559 382.918 865.539 384.371 868.023C385.848 870.484 386.586 873.227 386.586 876.25C386.586 878.5 386.164 880.621 385.32 882.613C384.477 884.582 383.305 886.316 381.805 887.816C380.305 889.293 378.559 890.465 376.566 891.332C374.598 892.176 372.488 892.598 370.238 892.598H346.367V909.824ZM370.238 880.68C371.48 880.68 372.535 880.246 373.402 879.379C374.27 878.512 374.703 877.457 374.703 876.215C374.703 874.996 374.27 873.953 373.402 873.086C372.535 872.219 371.48 871.785 370.238 871.785H346.367V880.68H370.238ZM447.723 909.824H438.512C434.27 909.824 430.355 908.852 426.77 906.906C423.207 904.961 420.277 902.348 417.98 899.066C415.707 895.762 414.348 892.41 413.902 889.012H405.641V909.824H393.758V859.902H405.641V877.129H414.781C415.812 873.543 417.84 870.238 420.863 867.215C423.16 864.918 425.809 863.125 428.809 861.836C431.832 860.547 435.066 859.902 438.512 859.902H447.723C452.34 859.902 456.535 861.027 460.309 863.277C464.082 865.504 467.082 868.516 469.309 872.312C471.559 876.086 472.684 880.27 472.684 884.863C472.684 888.309 472.039 891.543 470.75 894.566C469.461 897.566 467.68 900.215 465.406 902.512C463.109 904.785 460.449 906.578 457.426 907.891C454.402 909.18 451.168 909.824 447.723 909.824ZM447.723 897.941C449.551 897.941 451.25 897.602 452.82 896.922C454.414 896.242 455.809 895.305 457.004 894.109C458.199 892.914 459.125 891.531 459.781 889.961C460.461 888.367 460.801 886.668 460.801 884.863C460.801 882.449 460.215 880.258 459.043 878.289C457.871 876.297 456.289 874.715 454.297 873.543C452.328 872.371 450.137 871.785 447.723 871.785H438.512C436.707 871.785 435.008 872.125 433.414 872.805C431.844 873.484 430.461 874.422 429.266 875.617C428.07 876.812 427.133 878.207 426.453 879.801C425.773 881.371 425.434 883.059 425.434 884.863C425.434 887.254 426.02 889.445 427.191 891.438C428.387 893.406 429.969 894.988 431.938 896.184C433.93 897.355 436.121 897.941 438.512 897.941H447.723ZM516.207 909.824H480.453V859.902H503.797C505.344 859.902 506.82 860.125 508.227 860.57C510.5 861.32 512.457 862.527 514.098 864.191C515.762 865.832 516.957 867.789 517.684 870.062C518.152 871.469 518.387 872.934 518.387 874.457C518.387 876.004 518.34 876.895 518.246 877.129C519.301 877.129 520.777 877.562 522.676 878.43C524.598 879.273 526.297 880.434 527.773 881.91C529.273 883.41 530.445 885.156 531.289 887.148C532.133 889.117 532.555 891.227 532.555 893.477C532.555 896.477 531.816 899.219 530.34 901.703C528.887 904.164 526.918 906.133 524.434 907.609C521.973 909.086 519.23 909.824 516.207 909.824ZM503.797 877.832C504.547 877.832 505.18 877.574 505.695 877.059C506.234 876.52 506.504 875.77 506.504 874.809C506.504 873.848 506.234 873.109 505.695 872.594C505.18 872.055 504.547 871.785 503.797 871.785H492.336V877.832H503.797ZM516.207 897.941C517.449 897.941 518.504 897.508 519.371 896.641C520.238 895.75 520.672 894.695 520.672 893.477C520.672 892.352 520.309 891.379 519.582 890.559C518.879 889.738 517.965 889.234 516.84 889.047C516.652 889.023 508.484 889.012 492.336 889.012V897.941H516.207ZM598.367 909.824H586.273L581.035 896.465H553.402L548.164 909.824H536.07L555.652 859.902H578.785L598.367 909.824ZM576.359 884.547L571.367 871.785H563.07L558.043 884.547H576.359ZM656.867 909.824H644.984V889.012H616.648V909.824H604.766V859.902H616.648V877.129H644.984V859.902H656.867V909.824ZM716.984 909.824H705.102V889.012H676.766V909.824H664.883V859.902H676.766V877.129H705.102V859.902H716.984V909.824ZM780.266 909.824H768.383V892.562H755.973L737.727 909.824H720.781L739.66 892.035C737.738 891.73 735.512 890.312 732.98 887.781C731.48 886.281 730.309 884.547 729.465 882.578C728.621 880.586 728.199 878.465 728.199 876.215C728.199 873.215 728.926 870.484 730.379 868.023C731.855 865.539 733.824 863.559 736.285 862.082C738.77 860.605 741.523 859.867 744.547 859.867H780.266V909.824ZM768.383 880.68V871.785H744.512C743.293 871.785 742.238 872.219 741.348 873.086C740.48 873.953 740.047 874.996 740.047 876.215C740.047 877.457 740.48 878.512 741.348 879.379C742.238 880.246 743.293 880.68 744.512 880.68H768.383Z" fill="white" style="fill:white;fill-opacity:1;"/>
</svg>
