<svg width="960" height="960" viewBox="0 0 960 960" fill="none" xmlns="http://www.w3.org/2000/svg">
<mask id="path-1-inside-1_234_782" fill="white">
<path d="M0 0H960V960H0V0Z"/>
</mask>
<path d="M0 1H960V-1H0V1Z" fill="#0D0D0D" style="fill:#0D0D0D;fill:color(display-p3 0.0500 0.0500 0.0500);fill-opacity:1;" mask="url(#path-1-inside-1_234_782)"/>
<path d="M69.6699 74.9121H60.0723L48.5938 49.9512H55.6426L64.0449 68.9707H65.6797L74.0996 49.9512H81.1484L69.6699 74.9121ZM90.6406 74.9121H84.6992V49.9512H90.6406V74.9121ZM124.355 74.9121H115.9L106.76 66.2812H100.555V74.9121H94.6133V49.9336H112.49C113.99 49.9336 115.355 50.3027 116.586 51.041C117.828 51.7793 118.818 52.7695 119.557 54.0117C120.295 55.2422 120.664 56.6074 120.664 58.1074C120.664 59.2324 120.447 60.293 120.014 61.2891C119.592 62.2734 119.012 63.1406 118.273 63.8906C116.996 65.1562 115.883 65.8652 114.934 66.0176L124.355 74.9121ZM112.49 60.3398C113.111 60.3398 113.639 60.123 114.072 59.6895C114.506 59.2559 114.723 58.7285 114.723 58.1074C114.723 57.498 114.506 56.9766 114.072 56.543C113.639 56.1094 113.111 55.8926 112.49 55.8926H100.555V60.3398H112.49ZM152.111 74.9121H127.168V49.9512H152.111V55.8926H133.109V58.5645H152.111V64.5059H133.109V68.9531H152.111V74.9121ZM181.045 74.9121H156.102V49.9512H162.043V68.9531H181.045V74.9121ZM209.838 74.9121H184.895V49.9512H190.836V68.9531H209.838V74.9121ZM219.629 74.9121H213.688V49.9512H219.629V74.9121ZM253.537 74.9121H246.682L240.23 65.3496H235.15L228.699 74.9121H221.844L231.195 61.0781L223.777 49.9512H230.633L236.768 59.4082H238.613L244.748 49.9512H251.604L244.186 61.0781L253.537 74.9121ZM286.637 74.9121H276.916C275.404 74.9121 274.027 74.543 272.785 73.8047C271.555 73.0664 270.57 72.082 269.832 70.8516C269.105 69.6094 268.742 68.0156 268.742 66.0703H274.684C274.684 67.125 274.9 67.8691 275.334 68.3027C275.674 68.6543 276.096 68.8652 276.6 68.9355C276.693 68.959 280.033 68.9707 286.619 68.9707C287.24 68.9707 287.768 68.7539 288.201 68.3203C288.635 67.875 288.852 67.3477 288.852 66.7383C288.852 66.1758 288.67 65.6895 288.307 65.2793C287.955 64.8691 287.498 64.6172 286.936 64.5234C286.854 64.5117 283.549 64.5059 277.021 64.5059C276.025 64.5059 275.082 64.3184 274.191 63.9434C273.312 63.5684 272.539 63.0469 271.871 62.3789C271.215 61.7109 270.693 60.9375 270.307 60.0586C269.932 59.1797 269.744 58.2363 269.744 57.2285C269.744 55.8926 270.072 54.6738 270.729 53.5723C271.385 52.4707 272.264 51.5918 273.365 50.9355C274.467 50.2793 275.686 49.9512 277.021 49.9512H286.496C287.832 49.9512 289.051 50.2793 290.152 50.9355C291.254 51.5801 292.133 52.459 292.789 53.5723C293.445 54.6738 293.773 55.9395 293.773 57.3691H287.832C287.832 56.9121 287.709 56.5605 287.463 56.3145C287.217 56.0566 286.906 55.916 286.531 55.8926H277.004C276.641 55.916 276.33 56.0859 276.072 56.4023C275.826 56.707 275.703 57.041 275.703 57.4043C275.703 57.7676 275.832 58.1133 276.09 58.4414C276.359 58.7578 276.676 58.916 277.039 58.916H286.637C288.137 58.916 289.502 59.2266 290.732 59.8477C291.975 60.4688 292.959 61.4004 293.686 62.6426C294.424 63.873 294.793 65.2383 294.793 66.7383C294.793 67.8633 294.582 68.9238 294.16 69.9199C293.738 70.9043 293.152 71.7715 292.402 72.5215C291.664 73.2598 290.797 73.8457 289.801 74.2793C288.816 74.7012 287.762 74.9121 286.637 74.9121ZM314.516 74.9121H308.574V55.8926H296.691V49.9512H326.381V55.8926H314.516V74.9121ZM354.928 74.9121H329.984V49.9512H354.928V55.8926H335.926V58.5645H354.928V64.5059H335.926V68.9531H354.928V74.9121ZM388.66 74.9121H382.613L379.994 68.2324H366.178L363.559 74.9121H357.512L367.303 49.9512H378.869L388.66 74.9121ZM377.656 62.2734L375.16 55.8926H371.012L368.498 62.2734H377.656ZM422.182 74.9121H416.24V60.0762L410.492 69.2344H403.355L397.801 60.3926V74.9121H391.859V49.9512H398.152L406.344 63.293H407.504L415.889 49.9512H422.182V74.9121ZM432.184 74.9121H426.242V49.9336H444.119C445.631 49.9336 447.002 50.3027 448.232 51.041C449.475 51.7793 450.459 52.7695 451.186 54.0117C451.924 55.2422 452.293 56.6133 452.293 58.125C452.293 59.25 452.082 60.3105 451.66 61.3066C451.238 62.291 450.652 63.1582 449.902 63.9082C449.152 64.6465 448.279 65.2324 447.283 65.666C446.299 66.0879 445.244 66.2988 444.119 66.2988H432.184V74.9121ZM444.119 60.3398C444.74 60.3398 445.268 60.123 445.701 59.6895C446.135 59.2559 446.352 58.7285 446.352 58.1074C446.352 57.498 446.135 56.9766 445.701 56.543C445.268 56.1094 444.74 55.8926 444.119 55.8926H432.184V60.3398H444.119ZM485.621 74.9121H477.166L468.025 66.2812H461.82V74.9121H455.879V49.9336H473.756C475.256 49.9336 476.621 50.3027 477.852 51.041C479.094 51.7793 480.084 52.7695 480.822 54.0117C481.561 55.2422 481.93 56.6074 481.93 58.1074C481.93 59.2324 481.713 60.293 481.279 61.2891C480.857 62.2734 480.277 63.1406 479.539 63.8906C478.262 65.1562 477.148 65.8652 476.199 66.0176L485.621 74.9121ZM473.756 60.3398C474.377 60.3398 474.904 60.123 475.338 59.6895C475.771 59.2559 475.988 58.7285 475.988 58.1074C475.988 57.498 475.771 56.9766 475.338 56.543C474.904 56.1094 474.377 55.8926 473.756 55.8926H461.82V60.3398H473.756ZM503.656 74.9121H499.051C496.754 74.9121 494.662 74.3496 492.775 73.2246C490.889 72.0996 489.383 70.5938 488.258 68.707C487.133 66.8203 486.57 64.7285 486.57 62.4316C486.57 60.709 486.893 59.0918 487.537 57.5801C488.193 56.0684 489.09 54.7441 490.227 53.6074C491.363 52.459 492.688 51.5625 494.199 50.918C495.711 50.2734 497.328 49.9512 499.051 49.9512H503.656C505.953 49.9512 508.045 50.5137 509.932 51.6387C511.818 52.752 513.324 54.2578 514.449 56.1562C515.574 58.043 516.137 60.1348 516.137 62.4316C516.137 64.1543 515.809 65.7715 515.152 67.2832C514.508 68.7832 513.617 70.1074 512.48 71.2559C511.344 72.3926 510.02 73.2891 508.508 73.9453C506.996 74.5898 505.379 74.9121 503.656 74.9121ZM503.656 68.9707C504.559 68.9707 505.402 68.8008 506.188 68.4609C506.984 68.1211 507.682 67.6523 508.279 67.0547C508.877 66.457 509.346 65.7656 509.686 64.9805C510.025 64.1836 510.195 63.334 510.195 62.4316C510.195 61.2246 509.902 60.1289 509.316 59.1445C508.73 58.1484 507.939 57.3574 506.943 56.7715C505.959 56.1855 504.863 55.8926 503.656 55.8926H499.051C498.148 55.8926 497.299 56.0625 496.502 56.4023C495.717 56.7422 495.025 57.2109 494.428 57.8086C493.83 58.4062 493.361 59.1035 493.021 59.9004C492.682 60.6855 492.512 61.5293 492.512 62.4316C492.512 63.627 492.805 64.7227 493.391 65.7188C493.977 66.7031 494.762 67.4941 495.746 68.0918C496.742 68.6777 497.844 68.9707 499.051 68.9707H503.656ZM535.455 67.248H520.004V61.3066H535.455V67.248ZM569.381 74.9121H562.525L556.074 65.3496H550.994L544.543 74.9121H537.688L547.039 61.0781L539.621 49.9512H546.477L552.611 59.4082H554.457L560.592 49.9512H567.447L560.029 61.0781L569.381 74.9121Z" fill="#0D0D0D" style="fill:#0D0D0D;fill:color(display-p3 0.0500 0.0500 0.0500);fill-opacity:1;"/>
<path d="M50 532C50 541.889 52.9324 551.556 58.4265 559.778C63.9206 568.001 71.7295 574.41 80.8658 578.194C90.0021 581.978 100.055 582.968 109.754 581.039C119.454 579.11 128.363 574.348 135.355 567.355C142.348 560.363 147.11 551.454 149.039 541.754C150.968 532.055 149.978 522.002 146.194 512.866C142.41 503.73 136.001 495.921 127.778 490.427C119.556 484.932 109.889 482 100 482C86.0219 482.053 72.6054 487.507 62.5556 497.222L50 509.778M50 509.778V482M50 509.778H77.7778" stroke="#0D0D0D" style="stroke:#0D0D0D;stroke:color(display-p3 0.0500 0.0500 0.0500);stroke-opacity:1;" stroke-width="10" stroke-linecap="square"/>
<path d="M102.102 681.824H90.2188V643.785H61.8828V681.824H50V631.902H102.102V681.824ZM143.023 681.824H133.812C129.219 681.824 125.035 680.699 121.262 678.449C117.488 676.199 114.477 673.188 112.227 669.414C109.977 665.641 108.852 661.457 108.852 656.863C108.852 653.418 109.496 650.184 110.785 647.16C112.098 644.137 113.891 641.488 116.164 639.215C118.438 636.918 121.086 635.125 124.109 633.836C127.133 632.547 130.367 631.902 133.812 631.902H143.023C147.617 631.902 151.801 633.027 155.574 635.277C159.348 637.504 162.359 640.516 164.609 644.312C166.859 648.086 167.984 652.27 167.984 656.863C167.984 660.309 167.328 663.543 166.016 666.566C164.727 669.566 162.945 672.215 160.672 674.512C158.398 676.785 155.75 678.578 152.727 679.891C149.703 681.18 146.469 681.824 143.023 681.824ZM143.023 669.941C144.828 669.941 146.516 669.602 148.086 668.922C149.68 668.242 151.074 667.305 152.27 666.109C153.465 664.914 154.402 663.531 155.082 661.961C155.762 660.367 156.102 658.668 156.102 656.863C156.102 654.449 155.516 652.258 154.344 650.289C153.172 648.297 151.59 646.715 149.598 645.543C147.629 644.371 145.438 643.785 143.023 643.785H133.812C132.008 643.785 130.309 644.125 128.715 644.805C127.145 645.484 125.762 646.422 124.566 647.617C123.371 648.812 122.434 650.207 121.754 651.801C121.074 653.371 120.734 655.059 120.734 656.863C120.734 659.254 121.32 661.445 122.492 663.438C123.664 665.406 125.234 666.988 127.203 668.184C129.195 669.355 131.398 669.941 133.812 669.941H143.023ZM211.473 681.824H175.719V631.902H199.062C200.609 631.902 202.086 632.125 203.492 632.57C205.766 633.32 207.723 634.527 209.363 636.191C211.027 637.832 212.223 639.789 212.949 642.062C213.418 643.469 213.652 644.934 213.652 646.457C213.652 648.004 213.605 648.895 213.512 649.129C214.566 649.129 216.043 649.562 217.941 650.43C219.863 651.273 221.562 652.434 223.039 653.91C224.539 655.41 225.711 657.156 226.555 659.148C227.398 661.117 227.82 663.227 227.82 665.477C227.82 668.477 227.082 671.219 225.605 673.703C224.152 676.164 222.184 678.133 219.699 679.609C217.238 681.086 214.496 681.824 211.473 681.824ZM199.062 649.832C199.812 649.832 200.445 649.574 200.961 649.059C201.5 648.52 201.77 647.77 201.77 646.809C201.77 645.848 201.5 645.109 200.961 644.594C200.445 644.055 199.812 643.785 199.062 643.785H187.602V649.832H199.062ZM211.473 669.941C212.715 669.941 213.77 669.508 214.637 668.641C215.504 667.75 215.938 666.695 215.938 665.477C215.938 664.352 215.574 663.379 214.848 662.559C214.145 661.738 213.23 661.234 212.105 661.047C211.918 661.023 203.75 661.012 187.602 661.012V669.941H211.473ZM266.914 681.824H257.703C253.109 681.824 248.926 680.699 245.152 678.449C241.379 676.199 238.367 673.188 236.117 669.414C233.867 665.641 232.742 661.457 232.742 656.863C232.742 653.418 233.387 650.184 234.676 647.16C235.988 644.137 237.781 641.488 240.055 639.215C242.328 636.918 244.977 635.125 248 633.836C251.023 632.547 254.258 631.902 257.703 631.902H266.914C271.508 631.902 275.691 633.027 279.465 635.277C283.238 637.504 286.25 640.516 288.5 644.312C290.75 648.086 291.875 652.27 291.875 656.863C291.875 660.309 291.219 663.543 289.906 666.566C288.617 669.566 286.836 672.215 284.562 674.512C282.289 676.785 279.641 678.578 276.617 679.891C273.594 681.18 270.359 681.824 266.914 681.824ZM266.914 669.941C268.719 669.941 270.406 669.602 271.977 668.922C273.57 668.242 274.965 667.305 276.16 666.109C277.355 664.914 278.293 663.531 278.973 661.961C279.652 660.367 279.992 658.668 279.992 656.863C279.992 654.449 279.406 652.258 278.234 650.289C277.062 648.297 275.48 646.715 273.488 645.543C271.52 644.371 269.328 643.785 266.914 643.785H257.703C255.898 643.785 254.199 644.125 252.605 644.805C251.035 645.484 249.652 646.422 248.457 647.617C247.262 648.812 246.324 650.207 245.645 651.801C244.965 653.371 244.625 655.059 244.625 656.863C244.625 659.254 245.211 661.445 246.383 663.438C247.555 665.406 249.125 666.988 251.094 668.184C253.086 669.355 255.289 669.941 257.703 669.941H266.914ZM311.492 681.824H299.609V631.867H335.363C338.387 631.867 341.129 632.605 343.59 634.082C346.074 635.559 348.043 637.539 349.496 640.023C350.973 642.484 351.711 645.227 351.711 648.25C351.711 650.5 351.289 652.621 350.445 654.613C349.602 656.582 348.43 658.316 346.93 659.816C345.43 661.293 343.684 662.465 341.691 663.332C339.723 664.176 337.613 664.598 335.363 664.598H311.492V681.824ZM335.363 652.68C336.605 652.68 337.66 652.246 338.527 651.379C339.395 650.512 339.828 649.457 339.828 648.215C339.828 646.996 339.395 645.953 338.527 645.086C337.66 644.219 336.605 643.785 335.363 643.785H311.492V652.68H335.363ZM391.648 681.824H382.438C377.844 681.824 373.66 680.699 369.887 678.449C366.113 676.199 363.102 673.188 360.852 669.414C358.602 665.641 357.477 661.457 357.477 656.863C357.477 653.418 358.121 650.184 359.41 647.16C360.723 644.137 362.516 641.488 364.789 639.215C367.062 636.918 369.711 635.125 372.734 633.836C375.758 632.547 378.992 631.902 382.438 631.902H391.648C396.242 631.902 400.426 633.027 404.199 635.277C407.973 637.504 410.984 640.516 413.234 644.312C415.484 648.086 416.609 652.27 416.609 656.863C416.609 660.309 415.953 663.543 414.641 666.566C413.352 669.566 411.57 672.215 409.297 674.512C407.023 676.785 404.375 678.578 401.352 679.891C398.328 681.18 395.094 681.824 391.648 681.824ZM391.648 669.941C393.453 669.941 395.141 669.602 396.711 668.922C398.305 668.242 399.699 667.305 400.895 666.109C402.09 664.914 403.027 663.531 403.707 661.961C404.387 660.367 404.727 658.668 404.727 656.863C404.727 654.449 404.141 652.258 402.969 650.289C401.797 648.297 400.215 646.715 398.223 645.543C396.254 644.371 394.062 643.785 391.648 643.785H382.438C380.633 643.785 378.934 644.125 377.34 644.805C375.77 645.484 374.387 646.422 373.191 647.617C371.996 648.812 371.059 650.207 370.379 651.801C369.699 653.371 369.359 655.059 369.359 656.863C369.359 659.254 369.945 661.445 371.117 663.438C372.289 665.406 373.859 666.988 375.828 668.184C377.82 669.355 380.023 669.941 382.438 669.941H391.648ZM457.18 681.824H445.297V643.785H421.531V631.902H480.91V643.785H457.18V681.824ZM540.219 681.824H528.336V661.012H500V681.824H488.117V631.902H500V649.129H528.336V631.902H540.219V681.824ZM607.719 681.824H595.625L590.387 668.465H562.754L557.516 681.824H545.422L565.004 631.902H588.137L607.719 681.824ZM585.711 656.547L580.719 643.785H572.422L567.395 656.547H585.711ZM61.8828 757.824H50V707.902H95.4219V719.785H61.8828V757.824ZM132.758 757.824H123.547C118.953 757.824 114.77 756.699 110.996 754.449C107.223 752.199 104.211 749.188 101.961 745.414C99.7109 741.641 98.5859 737.457 98.5859 732.863C98.5859 729.418 99.2305 726.184 100.52 723.16C101.832 720.137 103.625 717.488 105.898 715.215C108.172 712.918 110.82 711.125 113.844 709.836C116.867 708.547 120.102 707.902 123.547 707.902H132.758C137.352 707.902 141.535 709.027 145.309 711.277C149.082 713.504 152.094 716.516 154.344 720.312C156.594 724.086 157.719 728.27 157.719 732.863C157.719 736.309 157.062 739.543 155.75 742.566C154.461 745.566 152.68 748.215 150.406 750.512C148.133 752.785 145.484 754.578 142.461 755.891C139.438 757.18 136.203 757.824 132.758 757.824ZM132.758 745.941C134.562 745.941 136.25 745.602 137.82 744.922C139.414 744.242 140.809 743.305 142.004 742.109C143.199 740.914 144.137 739.531 144.816 737.961C145.496 736.367 145.836 734.668 145.836 732.863C145.836 730.449 145.25 728.258 144.078 726.289C142.906 724.297 141.324 722.715 139.332 721.543C137.363 720.371 135.172 719.785 132.758 719.785H123.547C121.742 719.785 120.043 720.125 118.449 720.805C116.879 721.484 115.496 722.422 114.301 723.617C113.105 724.812 112.168 726.207 111.488 727.801C110.809 729.371 110.469 731.059 110.469 732.863C110.469 735.254 111.055 737.445 112.227 739.438C113.398 741.406 114.969 742.988 116.938 744.184C118.93 745.355 121.133 745.941 123.547 745.941H132.758ZM223.18 757.824H210.453L195.547 719.785H188.516L173.609 757.824H160.883L180.465 707.902H203.598L223.18 757.824ZM260.023 757.824H250.812C246.219 757.824 242.035 756.699 238.262 754.449C234.488 752.199 231.477 749.188 229.227 745.414C226.977 741.641 225.852 737.457 225.852 732.863C225.852 729.418 226.496 726.184 227.785 723.16C229.098 720.137 230.891 717.488 233.164 715.215C235.438 712.918 238.086 711.125 241.109 709.836C244.133 708.547 247.367 707.902 250.812 707.902H260.023C264.617 707.902 268.801 709.027 272.574 711.277C276.348 713.504 279.359 716.516 281.609 720.312C283.859 724.086 284.984 728.27 284.984 732.863C284.984 736.309 284.328 739.543 283.016 742.566C281.727 745.566 279.945 748.215 277.672 750.512C275.398 752.785 272.75 754.578 269.727 755.891C266.703 757.18 263.469 757.824 260.023 757.824ZM260.023 745.941C261.828 745.941 263.516 745.602 265.086 744.922C266.68 744.242 268.074 743.305 269.27 742.109C270.465 740.914 271.402 739.531 272.082 737.961C272.762 736.367 273.102 734.668 273.102 732.863C273.102 730.449 272.516 728.258 271.344 726.289C270.172 724.297 268.59 722.715 266.598 721.543C264.629 720.371 262.438 719.785 260.023 719.785H250.812C249.008 719.785 247.309 720.125 245.715 720.805C244.145 721.484 242.762 722.422 241.566 723.617C240.371 724.812 239.434 726.207 238.754 727.801C238.074 729.371 237.734 731.059 237.734 732.863C237.734 735.254 238.32 737.445 239.492 739.438C240.664 741.406 242.234 742.988 244.203 744.184C246.195 745.355 248.398 745.941 250.812 745.941H260.023ZM328.473 757.824H292.719V707.902H316.062C317.609 707.902 319.086 708.125 320.492 708.57C322.766 709.32 324.723 710.527 326.363 712.191C328.027 713.832 329.223 715.789 329.949 718.062C330.418 719.469 330.652 720.934 330.652 722.457C330.652 724.004 330.605 724.895 330.512 725.129C331.566 725.129 333.043 725.562 334.941 726.43C336.863 727.273 338.562 728.434 340.039 729.91C341.539 731.41 342.711 733.156 343.555 735.148C344.398 737.117 344.82 739.227 344.82 741.477C344.82 744.477 344.082 747.219 342.605 749.703C341.152 752.164 339.184 754.133 336.699 755.609C334.238 757.086 331.496 757.824 328.473 757.824ZM316.062 725.832C316.812 725.832 317.445 725.574 317.961 725.059C318.5 724.52 318.77 723.77 318.77 722.809C318.77 721.848 318.5 721.109 317.961 720.594C317.445 720.055 316.812 719.785 316.062 719.785H304.602V725.832H316.062ZM328.473 745.941C329.715 745.941 330.77 745.508 331.637 744.641C332.504 743.75 332.938 742.695 332.938 741.477C332.938 740.352 332.574 739.379 331.848 738.559C331.145 737.738 330.23 737.234 329.105 737.047C328.918 737.023 320.75 737.012 304.602 737.012V745.941H328.473ZM409.332 757.824H397.238L389.117 737.012H363.031V757.824H351.148V707.902H363.031V725.129H369.184L388.098 707.902H405.113L386.199 725.129H396.5L409.332 757.824ZM474.688 757.824H462.594L457.355 744.465H429.723L424.484 757.824H412.391L431.973 707.902H455.105L474.688 757.824ZM452.68 732.547L447.688 719.785H439.391L434.363 732.547H452.68ZM102.102 833.824H90.2188V795.785H61.8828V833.824H50V783.902H102.102V833.824ZM122.141 833.824H110.258V783.867H146.012C149.035 783.867 151.777 784.605 154.238 786.082C156.723 787.559 158.691 789.539 160.145 792.023C161.621 794.484 162.359 797.227 162.359 800.25C162.359 802.5 161.938 804.621 161.094 806.613C160.25 808.582 159.078 810.316 157.578 811.816C156.078 813.293 154.332 814.465 152.34 815.332C150.371 816.176 148.262 816.598 146.012 816.598H122.141V833.824ZM146.012 804.68C147.254 804.68 148.309 804.246 149.176 803.379C150.043 802.512 150.477 801.457 150.477 800.215C150.477 798.996 150.043 797.953 149.176 797.086C148.309 796.219 147.254 795.785 146.012 795.785H122.141V804.68H146.012ZM202.297 833.824H193.086C188.492 833.824 184.309 832.699 180.535 830.449C176.762 828.199 173.75 825.188 171.5 821.414C169.25 817.641 168.125 813.457 168.125 808.863C168.125 805.418 168.77 802.184 170.059 799.16C171.371 796.137 173.164 793.488 175.438 791.215C177.711 788.918 180.359 787.125 183.383 785.836C186.406 784.547 189.641 783.902 193.086 783.902H202.297C206.891 783.902 211.074 785.027 214.848 787.277C218.621 789.504 221.633 792.516 223.883 796.312C226.133 800.086 227.258 804.27 227.258 808.863C227.258 812.309 226.602 815.543 225.289 818.566C224 821.566 222.219 824.215 219.945 826.512C217.672 828.785 215.023 830.578 212 831.891C208.977 833.18 205.742 833.824 202.297 833.824ZM202.297 821.941C204.102 821.941 205.789 821.602 207.359 820.922C208.953 820.242 210.348 819.305 211.543 818.109C212.738 816.914 213.676 815.531 214.355 813.961C215.035 812.367 215.375 810.668 215.375 808.863C215.375 806.449 214.789 804.258 213.617 802.289C212.445 800.297 210.863 798.715 208.871 797.543C206.902 796.371 204.711 795.785 202.297 795.785H193.086C191.281 795.785 189.582 796.125 187.988 796.805C186.418 797.484 185.035 798.422 183.84 799.617C182.645 800.812 181.707 802.207 181.027 803.801C180.348 805.371 180.008 807.059 180.008 808.863C180.008 811.254 180.594 813.445 181.766 815.438C182.938 817.406 184.508 818.988 186.477 820.184C188.469 821.355 190.672 821.941 193.086 821.941H202.297ZM274.332 833.648H262.449V823.98H253.73C250.027 823.98 246.652 823.078 243.605 821.273C240.559 819.469 238.121 817.043 236.293 813.996C234.488 810.949 233.586 807.574 233.586 803.871C233.586 801.082 234.102 798.469 235.133 796.031C236.188 793.594 237.641 791.461 239.492 789.633C241.32 787.781 243.453 786.34 245.891 785.309C248.328 784.254 250.941 783.727 253.73 783.727H262.449V778.488H274.332V783.727H283.086C286.789 783.727 290.164 784.641 293.211 786.469C296.258 788.273 298.684 790.699 300.488 793.746C302.293 796.793 303.195 800.168 303.195 803.871C303.195 806.637 302.668 809.238 301.613 811.676C300.582 814.113 299.152 816.258 297.324 818.109C295.473 819.938 293.328 821.379 290.891 822.434C288.453 823.465 285.852 823.98 283.086 823.98H274.332V833.648ZM262.449 812.098V795.609H253.73C251.457 795.609 249.512 796.418 247.895 798.035C246.277 799.629 245.469 801.574 245.469 803.871C245.469 806.145 246.266 808.09 247.859 809.707C249.477 811.301 251.434 812.098 253.73 812.098H262.449ZM283.086 812.098C285.359 812.098 287.293 811.301 288.887 809.707C290.504 808.09 291.312 806.145 291.312 803.871C291.312 801.574 290.504 799.629 288.887 798.035C287.293 796.418 285.359 795.609 283.086 795.609H274.332V812.098H283.086ZM360.887 833.824H311V783.902H360.887V795.785H322.883V801.129H360.887V813.012H322.883V821.906H360.887V833.824ZM401.633 833.824H392.422C387.828 833.824 383.645 832.699 379.871 830.449C376.098 828.199 373.086 825.188 370.836 821.414C368.586 817.641 367.461 813.457 367.461 808.863C367.461 805.418 368.105 802.184 369.395 799.16C370.707 796.137 372.5 793.488 374.773 791.215C377.047 788.918 379.695 787.125 382.719 785.836C385.742 784.547 388.977 783.902 392.422 783.902H401.633C405.664 783.902 409.391 784.781 412.812 786.539C416.258 788.297 419.141 790.676 421.461 793.676C423.781 796.676 425.445 800.637 426.453 805.559H414.324C413.199 802.324 411.523 799.887 409.297 798.246C407.07 796.605 404.516 795.785 401.633 795.785H392.422C390.617 795.785 388.918 796.125 387.324 796.805C385.754 797.484 384.371 798.422 383.176 799.617C381.98 800.812 381.043 802.207 380.363 803.801C379.684 805.371 379.344 807.059 379.344 808.863C379.344 811.254 379.93 813.445 381.102 815.438C382.273 817.406 383.844 818.988 385.812 820.184C387.805 821.355 390.008 821.941 392.422 821.941H401.633C403.438 821.941 405.125 821.602 406.695 820.922C408.289 820.242 409.684 819.305 410.879 818.109C412.309 816.68 413.457 814.699 414.324 812.168H426.453C425.164 818.215 422.773 822.996 419.281 826.512C417.008 828.785 414.359 830.578 411.336 831.891C408.312 833.18 405.078 833.824 401.633 833.824ZM459.821 834H436.421V827.808L442.685 824.928V791.664L436.421 788.784V782.592H459.821V788.784L453.557 791.664V824.928L459.821 827.808V834ZM516.137 833.859H504.254V800.531L474.547 833.859H462.102V783.938H473.984V817.266L503.691 783.938H516.137V833.859ZM492.02 780.352H486.184C483.348 780.352 480.758 779.66 478.414 778.277C476.07 776.871 474.195 774.996 472.789 772.652C471.406 770.309 470.715 767.273 470.715 763.547H482.633C482.633 765.422 482.973 766.711 483.652 767.414C484.355 768.117 485.199 768.469 486.184 768.469H492.02C493.004 768.469 493.848 768.117 494.551 767.414C495.254 766.711 495.605 765.422 495.605 763.547H507.488C507.488 767.273 506.785 770.309 505.379 772.652C503.996 774.996 502.133 776.871 499.789 778.277C497.469 779.66 494.879 780.352 492.02 780.352ZM575.938 833.824H564.055V813.012H535.719V833.824H523.836V783.902H535.719V801.129H564.055V783.902H575.938V833.824ZM616.719 833.824H607.508C602.914 833.824 598.73 832.699 594.957 830.449C591.184 828.199 588.172 825.188 585.922 821.414C583.672 817.641 582.547 813.457 582.547 808.863C582.547 805.418 583.191 802.184 584.48 799.16C585.793 796.137 587.586 793.488 589.859 791.215C592.133 788.918 594.781 787.125 597.805 785.836C600.828 784.547 604.062 783.902 607.508 783.902H616.719C621.312 783.902 625.496 785.027 629.27 787.277C633.043 789.504 636.055 792.516 638.305 796.312C640.555 800.086 641.68 804.27 641.68 808.863C641.68 812.309 641.023 815.543 639.711 818.566C638.422 821.566 636.641 824.215 634.367 826.512C632.094 828.785 629.445 830.578 626.422 831.891C623.398 833.18 620.164 833.824 616.719 833.824ZM616.719 821.941C618.523 821.941 620.211 821.602 621.781 820.922C623.375 820.242 624.77 819.305 625.965 818.109C627.16 816.914 628.098 815.531 628.777 813.961C629.457 812.367 629.797 810.668 629.797 808.863C629.797 806.449 629.211 804.258 628.039 802.289C626.867 800.297 625.285 798.715 623.293 797.543C621.324 796.371 619.133 795.785 616.719 795.785H607.508C605.703 795.785 604.004 796.125 602.41 796.805C600.84 797.484 599.457 798.422 598.262 799.617C597.066 800.812 596.129 802.207 595.449 803.801C594.77 805.371 594.43 807.059 594.43 808.863C594.43 811.254 595.016 813.445 596.188 815.438C597.359 817.406 598.93 818.988 600.898 820.184C602.891 821.355 605.094 821.941 607.508 821.941H616.719ZM661.297 833.824H649.414V783.902H694.836V795.785H661.297V833.824ZM732.172 833.824H722.961C718.367 833.824 714.184 832.699 710.41 830.449C706.637 828.199 703.625 825.188 701.375 821.414C699.125 817.641 698 813.457 698 808.863C698 805.418 698.645 802.184 699.934 799.16C701.246 796.137 703.039 793.488 705.312 791.215C707.586 788.918 710.234 787.125 713.258 785.836C716.281 784.547 719.516 783.902 722.961 783.902H732.172C736.766 783.902 740.949 785.027 744.723 787.277C748.496 789.504 751.508 792.516 753.758 796.312C756.008 800.086 757.133 804.27 757.133 808.863C757.133 812.309 756.477 815.543 755.164 818.566C753.875 821.566 752.094 824.215 749.82 826.512C747.547 828.785 744.898 830.578 741.875 831.891C738.852 833.18 735.617 833.824 732.172 833.824ZM732.172 821.941C733.977 821.941 735.664 821.602 737.234 820.922C738.828 820.242 740.223 819.305 741.418 818.109C742.613 816.914 743.551 815.531 744.23 813.961C744.91 812.367 745.25 810.668 745.25 808.863C745.25 806.449 744.664 804.258 743.492 802.289C742.32 800.297 740.738 798.715 738.746 797.543C736.777 796.371 734.586 795.785 732.172 795.785H722.961C721.156 795.785 719.457 796.125 717.863 796.805C716.293 797.484 714.91 798.422 713.715 799.617C712.52 800.812 711.582 802.207 710.902 803.801C710.223 805.371 709.883 807.059 709.883 808.863C709.883 811.254 710.469 813.445 711.641 815.438C712.812 817.406 714.383 818.988 716.352 820.184C718.344 821.355 720.547 821.941 722.961 821.941H732.172ZM61.8828 909.824H50V859.867H85.7539C88.7773 859.867 91.5195 860.605 93.9805 862.082C96.4648 863.559 98.4336 865.539 99.8867 868.023C101.363 870.484 102.102 873.227 102.102 876.25C102.102 878.5 101.68 880.621 100.836 882.613C99.9922 884.582 98.8203 886.316 97.3203 887.816C95.8203 889.293 94.0742 890.465 92.082 891.332C90.1133 892.176 88.0039 892.598 85.7539 892.598H61.8828V909.824ZM85.7539 880.68C86.9961 880.68 88.0508 880.246 88.918 879.379C89.7852 878.512 90.2188 877.457 90.2188 876.215C90.2188 874.996 89.7852 873.953 88.918 873.086C88.0508 872.219 86.9961 871.785 85.7539 871.785H61.8828V880.68H85.7539ZM134.977 910H111.577V903.808L117.841 900.928V867.664L111.577 864.784V858.592H134.977V864.784L128.713 867.664V900.928L134.977 903.808V910ZM173.012 909.824H137.258V859.902H160.602C162.148 859.902 163.625 860.125 165.031 860.57C167.305 861.32 169.262 862.527 170.902 864.191C172.566 865.832 173.762 867.789 174.488 870.062C174.957 871.469 175.191 872.934 175.191 874.457C175.191 876.004 175.145 876.895 175.051 877.129C176.105 877.129 177.582 877.562 179.48 878.43C181.402 879.273 183.102 880.434 184.578 881.91C186.078 883.41 187.25 885.156 188.094 887.148C188.938 889.117 189.359 891.227 189.359 893.477C189.359 896.477 188.621 899.219 187.145 901.703C185.691 904.164 183.723 906.133 181.238 907.609C178.777 909.086 176.035 909.824 173.012 909.824ZM160.602 877.832C161.352 877.832 161.984 877.574 162.5 877.059C163.039 876.52 163.309 875.77 163.309 874.809C163.309 873.848 163.039 873.109 162.5 872.594C161.984 872.055 161.352 871.785 160.602 871.785H149.141V877.832H160.602ZM173.012 897.941C174.254 897.941 175.309 897.508 176.176 896.641C177.043 895.75 177.477 894.695 177.477 893.477C177.477 892.352 177.113 891.379 176.387 890.559C175.684 889.738 174.77 889.234 173.645 889.047C173.457 889.023 165.289 889.012 149.141 889.012V897.941H173.012ZM247.789 909.824H235.906V889.012H207.57V909.824H195.688V859.902H207.57V877.129H235.906V859.902H247.789V909.824ZM311.07 909.824H299.188V892.562H286.777L268.531 909.824H251.586L270.465 892.035C268.543 891.73 266.316 890.312 263.785 887.781C262.285 886.281 261.113 884.547 260.27 882.578C259.426 880.586 259.004 878.465 259.004 876.215C259.004 873.215 259.73 870.484 261.184 868.023C262.66 865.539 264.629 863.559 267.09 862.082C269.574 860.605 272.328 859.867 275.352 859.867H311.07V909.824ZM299.188 880.68V871.785H275.316C274.098 871.785 273.043 872.219 272.152 873.086C271.285 873.953 270.852 874.996 270.852 876.215C270.852 877.457 271.285 878.512 272.152 879.379C273.043 880.246 274.098 880.68 275.316 880.68H299.188Z" fill="#0D0D0D" style="fill:#0D0D0D;fill:color(display-p3 0.0500 0.0500 0.0500);fill-opacity:1;"/>
</svg>
