<svg width="1781" height="701" viewBox="0 0 1781 701" fill="none" xmlns="http://www.w3.org/2000/svg">
<path d="M53.6988 275.744L53.7006 275.745C68.0667 284.284 83.9906 288.551 101.461 288.551H213.249C226.251 288.551 238.447 286.113 249.833 281.233L249.835 281.232C261.345 276.222 271.371 269.448 279.907 260.912C288.578 252.242 295.352 242.216 300.228 230.838L300.229 230.836C305.108 219.316 307.546 207.054 307.546 194.052C307.546 176.716 303.279 160.927 294.74 146.696C286.338 132.332 274.948 121.55 260.575 114.363C246.349 107.182 230.57 103.596 213.249 103.596H102.876C98.8696 103.596 95.3654 101.861 92.347 98.321C89.4447 94.6243 88.0127 90.7575 88.0127 86.7109C88.0127 82.657 89.3824 78.9255 92.1462 75.5033C95.031 71.9634 98.4737 70.0895 102.488 69.8262H212.02C216.208 70.0912 219.654 71.658 222.388 74.523L222.388 74.5231L222.396 74.5313C225.106 77.241 226.495 81.1403 226.495 86.3066V86.8066H226.995H295.321H295.821V86.3066C295.821 69.7858 292.029 55.1407 284.431 42.3867C276.841 29.5131 266.674 19.3452 253.933 11.89C241.185 4.29555 227.081 0.5 211.632 0.5H102.674C87.2244 0.5 73.1197 4.2958 60.3711 11.8908C47.6317 19.4802 37.4646 29.6473 29.8751 42.3867C22.2802 55.1354 18.4844 69.24 18.4844 84.6895C18.4844 96.343 20.6528 107.259 24.9932 117.432L24.9955 117.437C29.4665 127.598 35.4973 136.543 43.0877 144.269L43.0908 144.272C50.8181 152 59.7662 158.033 69.9317 162.37L69.9339 162.371C80.2394 166.71 91.1542 168.879 102.674 168.879C140.206 168.879 168.473 168.896 187.474 168.929C196.975 168.946 204.159 168.967 209.027 168.993C211.46 169.005 213.314 169.019 214.589 169.034C215.226 169.041 215.717 169.049 216.063 169.056C216.236 169.06 216.371 169.064 216.469 169.068C216.516 169.07 216.55 169.072 216.573 169.073C216.597 169.075 216.609 169.076 216.613 169.076C222.969 170.137 228.113 172.979 232.073 177.599L232.079 177.605C236.173 182.228 238.22 187.702 238.22 194.052C238.22 200.926 235.78 206.865 230.884 211.895C225.993 216.784 220.057 219.225 213.047 219.225C175.178 219.225 146.642 219.191 127.439 219.124C117.837 219.09 110.569 219.048 105.635 218.997C103.168 218.972 101.286 218.945 99.9877 218.915C99.3383 218.9 98.8376 218.885 98.4838 218.87C98.3066 218.862 98.1697 218.854 98.0709 218.847C98.0356 218.844 98.0086 218.841 97.9886 218.839C97.9441 218.835 97.9338 218.833 97.9432 218.835L97.9177 218.829L97.8914 218.825C92.2022 218.031 87.4544 215.655 83.6271 211.695L83.6211 211.689C78.7768 206.845 76.2881 198.455 76.2881 186.37V185.87H75.7881H7.46191H6.96191V186.37C6.96191 208.8 11.1502 227.223 19.5635 241.607L19.5664 241.612C28.0988 255.833 39.478 267.212 53.6988 275.744ZM533.856 288.551H534.356V288.051V69.8262H670.307H670.807V69.3262V1V0.5H670.307H328.878H328.378V1V69.3262V69.8262H328.878H465.03V288.051V288.551H465.53H533.856ZM998.596 288.551H999.096V288.051V219.522V219.022H998.596H780.573V168.879H998.596H999.096V168.379V100.053V99.5527H998.596H780.573V69.8262H998.596H999.096V69.3262V1V0.5H998.596H711.747H711.247V1V288.051V288.551H711.747H998.596ZM1386.52 288.551H1387.25L1386.98 287.868L1274.39 0.817417L1274.26 0.5H1273.92H1140.91H1140.57L1140.44 0.817417L1027.85 287.868L1027.58 288.551H1028.31H1097.85H1098.19L1098.32 288.233L1128.31 211.734H1286.52L1316.51 288.233L1316.64 288.551H1316.98H1386.52ZM1772.02 288.551H1772.52V288.051V1V0.5H1772.02H1699.65H1699.37L1699.22 0.733948L1602.95 153.931H1590.16L1496.1 0.73839L1495.96 0.5H1495.68H1423.31H1422.81V1V288.051V288.551H1423.31H1491.64H1492.14V288.051V122.812L1555.09 223.023L1555.24 223.257H1555.51H1637.59H1637.86L1638.01 223.023L1703.19 119.175V288.051V288.551H1703.69H1772.02ZM1183.9 69.8262H1230.93L1259.24 142.206H1155.39L1183.9 69.8262Z" stroke="url(#paint0_linear_321_465)" style=""/>
<path d="M795.119 435.083C780.959 449.243 769.793 465.738 761.62 484.565L761.619 484.568L795.473 435.437M795.119 435.083L795.473 435.437M795.119 435.083C795.118 435.084 795.118 435.085 795.117 435.085L795.473 435.437M795.119 435.083C809.279 420.778 825.775 409.611 844.604 401.583C863.439 393.552 883.586 389.539 905.04 389.539H962.225C990.829 389.539 1016.89 396.545 1040.4 410.561M795.473 435.437C809.587 421.177 826.029 410.046 844.8 402.043C863.57 394.04 883.65 390.039 905.04 390.039H962.225C990.744 390.039 1016.72 397.023 1040.14 410.992M1040.4 410.561L1040.14 410.992M1040.4 410.561C1040.4 410.561 1040.4 410.562 1040.4 410.562L1040.14 410.992M1040.4 410.561L1040.14 410.992M74.7725 700.47H75.2725V699.97V593.522H222.972C237.005 593.522 250.168 590.89 262.456 585.624L262.459 585.623C274.881 580.216 285.773 572.906 295.131 563.695L295.134 563.692C304.492 554.334 311.803 543.513 317.066 531.233L317.067 531.231C322.332 518.798 324.964 505.563 324.964 491.53C324.964 472.675 320.359 455.561 311.143 440.202C302.079 424.706 289.796 412.35 274.301 403.141C258.941 393.926 241.828 389.32 222.972 389.32H1H0.5V389.82V699.97V700.47H1H74.7725ZM738.288 700.47H739.546L738.631 699.607L622.367 589.85C634.091 587.613 647.678 578.777 663.121 563.475L663.126 563.471C672.337 554.113 679.575 543.293 684.837 531.014C690.248 518.582 692.953 505.346 692.953 491.312C692.953 472.601 688.347 455.559 679.131 440.2C669.922 424.706 657.568 412.351 642.074 403.142C626.714 393.926 609.673 389.32 590.961 389.32H368.989H368.489V389.82V699.97V700.47H368.989H442.762H443.262V699.97V593.304H519.609L632.961 700.334L633.105 700.47H633.304H738.288ZM1096.67 466.83C1096.67 466.83 1096.67 466.829 1096.67 466.829L1096.24 467.085L1096.67 466.83ZM1105.43 605.444C1105.43 605.443 1105.43 605.443 1105.43 605.442L1104.97 605.245L1105.43 605.444ZM993.458 619.408L993.456 619.409C983.773 623.6 973.364 625.698 962.225 625.698H905.04C890.138 625.698 876.549 622.082 864.262 614.854C852.111 607.477 842.423 597.715 835.191 585.566C827.962 573.277 824.347 559.76 824.347 545.004C824.347 533.865 826.444 523.456 830.635 513.773L830.636 513.771C834.831 503.934 840.616 495.33 847.991 487.955C855.366 480.58 863.897 474.795 873.588 470.601C883.418 466.408 893.901 464.311 905.04 464.311H962.225C977.127 464.311 990.643 467.927 1002.78 475.154L1002.79 475.155C1015.08 482.387 1024.84 492.148 1032.07 504.443L1032.08 504.445C1039.3 516.586 1042.92 530.102 1042.92 545.004C1042.92 556.144 1040.82 566.626 1036.63 576.456C1032.43 586.147 1026.65 594.679 1019.27 602.054C1011.9 609.428 1003.3 615.213 993.458 619.408ZM1357.06 605.308H1357.56V604.808V531.036V530.536H1357.06H1165.21H1164.71V531.036V604.808V605.308H1165.21H1357.06ZM1778.31 700.47H1779.25L1778.72 699.69L1662.79 528.196L1754.71 390.316L1755.23 389.539H1754.3H1669.17H1668.9L1668.75 389.766L1592.73 506.963H1570.36L1494.33 389.766L1494.18 389.539H1493.91H1408.79H1407.85L1408.37 390.316L1500.29 528.196L1384.37 699.69L1383.84 700.47H1384.78H1469.9H1470.17L1470.32 700.25L1550.27 581.736H1612.82L1692.77 700.25L1692.92 700.47H1693.18H1778.31ZM242.262 510.602C236.973 515.891 230.553 518.531 222.972 518.531H75.2725V464.311H222.972C230.553 464.311 236.973 466.952 242.262 472.24C247.553 477.531 250.191 483.879 250.191 491.312C250.191 498.893 247.551 505.313 242.262 510.602ZM610.251 510.602C604.963 515.891 598.543 518.531 590.961 518.531H443.262V464.311H590.961C598.543 464.311 604.963 466.952 610.251 472.24C615.542 477.531 618.181 483.879 618.181 491.312C618.181 498.893 615.54 505.313 610.251 510.602Z" stroke="url(#paint1_linear_321_465)" style=""/>
<defs>
<linearGradient id="paint0_linear_321_465" x1="1820" y1="162.881" x2="37.0784" y2="162.881" gradientUnits="userSpaceOnUse">
<stop stop-color="white" stop-opacity="0" style="stop-color:none;stop-opacity:0;"/>
<stop offset="1" stop-color="white" style="stop-color:white;stop-opacity:1;"/>
</linearGradient>
<linearGradient id="paint1_linear_321_465" x1="1778" y1="564.823" x2="1" y2="564.823" gradientUnits="userSpaceOnUse">
<stop stop-color="white" style="stop-color:white;stop-opacity:1;"/>
<stop offset="0.499133" stop-color="white" stop-opacity="0.507788" style="stop-color:white;stop-opacity:0.507788;"/>
<stop offset="1" stop-color="white" stop-opacity="0" style="stop-color:none;stop-opacity:0;"/>
</linearGradient>
</defs>
</svg>
