<svg width="960" height="960" viewBox="0 0 960 960" fill="none" xmlns="http://www.w3.org/2000/svg">
<mask id="path-1-inside-1_234_795" fill="white">
<path d="M0 0H960V960H0V0Z"/>
</mask>
<path d="M0 1H960V-1H0V1Z" fill="#0D0D0D" style="fill:#0D0D0D;fill:color(display-p3 0.0500 0.0500 0.0500);fill-opacity:1;" mask="url(#path-1-inside-1_234_795)"/>
<path d="M69.6699 74.9121H60.0723L48.5938 49.9512H55.6426L64.0449 68.9707H65.6797L74.0996 49.9512H81.1484L69.6699 74.9121ZM90.6406 74.9121H84.6992V49.9512H90.6406V74.9121ZM124.355 74.9121H115.9L106.76 66.2812H100.555V74.9121H94.6133V49.9336H112.49C113.99 49.9336 115.355 50.3027 116.586 51.041C117.828 51.7793 118.818 52.7695 119.557 54.0117C120.295 55.2422 120.664 56.6074 120.664 58.1074C120.664 59.2324 120.447 60.293 120.014 61.2891C119.592 62.2734 119.012 63.1406 118.273 63.8906C116.996 65.1562 115.883 65.8652 114.934 66.0176L124.355 74.9121ZM112.49 60.3398C113.111 60.3398 113.639 60.123 114.072 59.6895C114.506 59.2559 114.723 58.7285 114.723 58.1074C114.723 57.498 114.506 56.9766 114.072 56.543C113.639 56.1094 113.111 55.8926 112.49 55.8926H100.555V60.3398H112.49ZM152.111 74.9121H127.168V49.9512H152.111V55.8926H133.109V58.5645H152.111V64.5059H133.109V68.9531H152.111V74.9121ZM181.045 74.9121H156.102V49.9512H162.043V68.9531H181.045V74.9121ZM209.838 74.9121H184.895V49.9512H190.836V68.9531H209.838V74.9121ZM219.629 74.9121H213.688V49.9512H219.629V74.9121ZM253.537 74.9121H246.682L240.23 65.3496H235.15L228.699 74.9121H221.844L231.195 61.0781L223.777 49.9512H230.633L236.768 59.4082H238.613L244.748 49.9512H251.604L244.186 61.0781L253.537 74.9121ZM286.637 74.9121H276.916C275.404 74.9121 274.027 74.543 272.785 73.8047C271.555 73.0664 270.57 72.082 269.832 70.8516C269.105 69.6094 268.742 68.0156 268.742 66.0703H274.684C274.684 67.125 274.9 67.8691 275.334 68.3027C275.674 68.6543 276.096 68.8652 276.6 68.9355C276.693 68.959 280.033 68.9707 286.619 68.9707C287.24 68.9707 287.768 68.7539 288.201 68.3203C288.635 67.875 288.852 67.3477 288.852 66.7383C288.852 66.1758 288.67 65.6895 288.307 65.2793C287.955 64.8691 287.498 64.6172 286.936 64.5234C286.854 64.5117 283.549 64.5059 277.021 64.5059C276.025 64.5059 275.082 64.3184 274.191 63.9434C273.312 63.5684 272.539 63.0469 271.871 62.3789C271.215 61.7109 270.693 60.9375 270.307 60.0586C269.932 59.1797 269.744 58.2363 269.744 57.2285C269.744 55.8926 270.072 54.6738 270.729 53.5723C271.385 52.4707 272.264 51.5918 273.365 50.9355C274.467 50.2793 275.686 49.9512 277.021 49.9512H286.496C287.832 49.9512 289.051 50.2793 290.152 50.9355C291.254 51.5801 292.133 52.459 292.789 53.5723C293.445 54.6738 293.773 55.9395 293.773 57.3691H287.832C287.832 56.9121 287.709 56.5605 287.463 56.3145C287.217 56.0566 286.906 55.916 286.531 55.8926H277.004C276.641 55.916 276.33 56.0859 276.072 56.4023C275.826 56.707 275.703 57.041 275.703 57.4043C275.703 57.7676 275.832 58.1133 276.09 58.4414C276.359 58.7578 276.676 58.916 277.039 58.916H286.637C288.137 58.916 289.502 59.2266 290.732 59.8477C291.975 60.4688 292.959 61.4004 293.686 62.6426C294.424 63.873 294.793 65.2383 294.793 66.7383C294.793 67.8633 294.582 68.9238 294.16 69.9199C293.738 70.9043 293.152 71.7715 292.402 72.5215C291.664 73.2598 290.797 73.8457 289.801 74.2793C288.816 74.7012 287.762 74.9121 286.637 74.9121ZM314.516 74.9121H308.574V55.8926H296.691V49.9512H326.381V55.8926H314.516V74.9121ZM354.928 74.9121H329.984V49.9512H354.928V55.8926H335.926V58.5645H354.928V64.5059H335.926V68.9531H354.928V74.9121ZM388.66 74.9121H382.613L379.994 68.2324H366.178L363.559 74.9121H357.512L367.303 49.9512H378.869L388.66 74.9121ZM377.656 62.2734L375.16 55.8926H371.012L368.498 62.2734H377.656ZM422.182 74.9121H416.24V60.0762L410.492 69.2344H403.355L397.801 60.3926V74.9121H391.859V49.9512H398.152L406.344 63.293H407.504L415.889 49.9512H422.182V74.9121ZM432.184 74.9121H426.242V49.9336H444.119C445.631 49.9336 447.002 50.3027 448.232 51.041C449.475 51.7793 450.459 52.7695 451.186 54.0117C451.924 55.2422 452.293 56.6133 452.293 58.125C452.293 59.25 452.082 60.3105 451.66 61.3066C451.238 62.291 450.652 63.1582 449.902 63.9082C449.152 64.6465 448.279 65.2324 447.283 65.666C446.299 66.0879 445.244 66.2988 444.119 66.2988H432.184V74.9121ZM444.119 60.3398C444.74 60.3398 445.268 60.123 445.701 59.6895C446.135 59.2559 446.352 58.7285 446.352 58.1074C446.352 57.498 446.135 56.9766 445.701 56.543C445.268 56.1094 444.74 55.8926 444.119 55.8926H432.184V60.3398H444.119ZM485.621 74.9121H477.166L468.025 66.2812H461.82V74.9121H455.879V49.9336H473.756C475.256 49.9336 476.621 50.3027 477.852 51.041C479.094 51.7793 480.084 52.7695 480.822 54.0117C481.561 55.2422 481.93 56.6074 481.93 58.1074C481.93 59.2324 481.713 60.293 481.279 61.2891C480.857 62.2734 480.277 63.1406 479.539 63.8906C478.262 65.1562 477.148 65.8652 476.199 66.0176L485.621 74.9121ZM473.756 60.3398C474.377 60.3398 474.904 60.123 475.338 59.6895C475.771 59.2559 475.988 58.7285 475.988 58.1074C475.988 57.498 475.771 56.9766 475.338 56.543C474.904 56.1094 474.377 55.8926 473.756 55.8926H461.82V60.3398H473.756ZM503.656 74.9121H499.051C496.754 74.9121 494.662 74.3496 492.775 73.2246C490.889 72.0996 489.383 70.5938 488.258 68.707C487.133 66.8203 486.57 64.7285 486.57 62.4316C486.57 60.709 486.893 59.0918 487.537 57.5801C488.193 56.0684 489.09 54.7441 490.227 53.6074C491.363 52.459 492.688 51.5625 494.199 50.918C495.711 50.2734 497.328 49.9512 499.051 49.9512H503.656C505.953 49.9512 508.045 50.5137 509.932 51.6387C511.818 52.752 513.324 54.2578 514.449 56.1562C515.574 58.043 516.137 60.1348 516.137 62.4316C516.137 64.1543 515.809 65.7715 515.152 67.2832C514.508 68.7832 513.617 70.1074 512.48 71.2559C511.344 72.3926 510.02 73.2891 508.508 73.9453C506.996 74.5898 505.379 74.9121 503.656 74.9121ZM503.656 68.9707C504.559 68.9707 505.402 68.8008 506.188 68.4609C506.984 68.1211 507.682 67.6523 508.279 67.0547C508.877 66.457 509.346 65.7656 509.686 64.9805C510.025 64.1836 510.195 63.334 510.195 62.4316C510.195 61.2246 509.902 60.1289 509.316 59.1445C508.73 58.1484 507.939 57.3574 506.943 56.7715C505.959 56.1855 504.863 55.8926 503.656 55.8926H499.051C498.148 55.8926 497.299 56.0625 496.502 56.4023C495.717 56.7422 495.025 57.2109 494.428 57.8086C493.83 58.4062 493.361 59.1035 493.021 59.9004C492.682 60.6855 492.512 61.5293 492.512 62.4316C492.512 63.627 492.805 64.7227 493.391 65.7188C493.977 66.7031 494.762 67.4941 495.746 68.0918C496.742 68.6777 497.844 68.9707 499.051 68.9707H503.656ZM535.455 67.248H520.004V61.3066H535.455V67.248ZM569.381 74.9121H562.525L556.074 65.3496H550.994L544.543 74.9121H537.688L547.039 61.0781L539.621 49.9512H546.477L552.611 59.4082H554.457L560.592 49.9512H567.447L560.029 61.0781L569.381 74.9121Z" fill="#0D0D0D" style="fill:#0D0D0D;fill:color(display-p3 0.0500 0.0500 0.0500);fill-opacity:1;"/>
<path d="M100.187 597.776C97.525 597.776 94.9719 598.833 93.0896 600.716C91.2072 602.598 90.1497 605.151 90.1497 607.813C90.1497 612.932 89.6478 620.41 88.8448 627.888M110.224 613.434C110.224 625.379 110.224 645.453 105.206 658M126.736 653.082C127.338 650.071 128.894 641.539 129.245 637.925M50 607.813C50 597.28 53.3142 587.013 59.4732 578.468C65.6322 569.923 74.3237 563.532 84.3165 560.201C94.3094 556.87 105.097 556.768 115.151 559.909C125.206 563.05 134.017 569.274 140.337 577.701M50 627.888H50.0502M149.37 627.888C150.374 617.85 150.028 601.018 149.37 597.776M65.0561 645.453C67.5655 637.925 70.0748 622.869 70.0748 607.813C70.0698 604.395 70.6468 601 71.7812 597.776M83.3744 658C84.4283 654.688 85.6328 651.375 86.2351 647.963M85.131 581.716C89.71 579.072 94.9045 577.681 100.192 577.681C105.479 577.682 110.673 579.075 115.252 581.721C119.83 584.366 123.631 588.17 126.272 592.75C128.914 597.33 130.303 602.526 130.299 607.813V617.85" stroke="#0D0D0D" style="stroke:#0D0D0D;stroke:color(display-p3 0.0500 0.0500 0.0500);stroke-opacity:1;" stroke-width="10" stroke-linecap="square"/>
<g filter="url(#filter0_b_234_795)">
<path d="M82.8359 757.824H70.9531V719.785H47.1875V707.902H106.566V719.785H82.8359V757.824ZM163.66 757.824H113.773V707.902H163.66V719.785H125.656V725.129H163.66V737.012H125.656V745.906H163.66V757.824ZM231.512 757.824H217.801L204.898 738.699H194.738L181.836 757.824H168.125L186.828 730.156L171.992 707.902H185.703L197.973 726.816H201.664L213.934 707.902H227.645L212.809 730.156L231.512 757.824ZM289.836 757.824H277.953V737.012H249.617V757.824H237.734V707.902H249.617V725.129H277.953V707.902H289.836V757.824ZM330.617 757.824H321.406C316.812 757.824 312.629 756.699 308.855 754.449C305.082 752.199 302.07 749.188 299.82 745.414C297.57 741.641 296.445 737.457 296.445 732.863C296.445 729.418 297.09 726.184 298.379 723.16C299.691 720.137 301.484 717.488 303.758 715.215C306.031 712.918 308.68 711.125 311.703 709.836C314.727 708.547 317.961 707.902 321.406 707.902H330.617C335.211 707.902 339.395 709.027 343.168 711.277C346.941 713.504 349.953 716.516 352.203 720.312C354.453 724.086 355.578 728.27 355.578 732.863C355.578 736.309 354.922 739.543 353.609 742.566C352.32 745.566 350.539 748.215 348.266 750.512C345.992 752.785 343.344 754.578 340.32 755.891C337.297 757.18 334.062 757.824 330.617 757.824ZM330.617 745.941C332.422 745.941 334.109 745.602 335.68 744.922C337.273 744.242 338.668 743.305 339.863 742.109C341.059 740.914 341.996 739.531 342.676 737.961C343.355 736.367 343.695 734.668 343.695 732.863C343.695 730.449 343.109 728.258 341.938 726.289C340.766 724.297 339.184 722.715 337.191 721.543C335.223 720.371 333.031 719.785 330.617 719.785H321.406C319.602 719.785 317.902 720.125 316.309 720.805C314.738 721.484 313.355 722.422 312.16 723.617C310.965 724.812 310.027 726.207 309.348 727.801C308.668 729.371 308.328 731.059 308.328 732.863C308.328 735.254 308.914 737.445 310.086 739.438C311.258 741.406 312.828 742.988 314.797 744.184C316.789 745.355 318.992 745.941 321.406 745.941H330.617ZM421.039 757.824H408.312L393.406 719.785H386.375L371.469 757.824H358.742L378.324 707.902H401.457L421.039 757.824ZM457.883 757.824H448.672C444.078 757.824 439.895 756.699 436.121 754.449C432.348 752.199 429.336 749.188 427.086 745.414C424.836 741.641 423.711 737.457 423.711 732.863C423.711 729.418 424.355 726.184 425.645 723.16C426.957 720.137 428.75 717.488 431.023 715.215C433.297 712.918 435.945 711.125 438.969 709.836C441.992 708.547 445.227 707.902 448.672 707.902H457.883C462.477 707.902 466.66 709.027 470.434 711.277C474.207 713.504 477.219 716.516 479.469 720.312C481.719 724.086 482.844 728.27 482.844 732.863C482.844 736.309 482.188 739.543 480.875 742.566C479.586 745.566 477.805 748.215 475.531 750.512C473.258 752.785 470.609 754.578 467.586 755.891C464.562 757.18 461.328 757.824 457.883 757.824ZM457.883 745.941C459.688 745.941 461.375 745.602 462.945 744.922C464.539 744.242 465.934 743.305 467.129 742.109C468.324 740.914 469.262 739.531 469.941 737.961C470.621 736.367 470.961 734.668 470.961 732.863C470.961 730.449 470.375 728.258 469.203 726.289C468.031 724.297 466.449 722.715 464.457 721.543C462.488 720.371 460.297 719.785 457.883 719.785H448.672C446.867 719.785 445.168 720.125 443.574 720.805C442.004 721.484 440.621 722.422 439.426 723.617C438.23 724.812 437.293 726.207 436.613 727.801C435.934 729.371 435.594 731.059 435.594 732.863C435.594 735.254 436.18 737.445 437.352 739.438C438.523 741.406 440.094 742.988 442.062 744.184C444.055 745.355 446.258 745.941 448.672 745.941H457.883ZM502.461 757.824H490.578V707.902H536V719.785H502.461V757.824ZM568.032 758H544.632V751.808L550.896 748.928V715.664L544.632 712.784V706.592H568.032V712.784L561.768 715.664V748.928L568.032 751.808V758ZM625.578 757.824H613.695V740.562H601.285L583.039 757.824H566.094L584.973 740.035C583.051 739.73 580.824 738.312 578.293 735.781C576.793 734.281 575.621 732.547 574.777 730.578C573.934 728.586 573.512 726.465 573.512 724.215C573.512 721.215 574.238 718.484 575.691 716.023C577.168 713.539 579.137 711.559 581.598 710.082C584.082 708.605 586.836 707.867 589.859 707.867H625.578V757.824ZM613.695 728.68V719.785H589.824C588.605 719.785 587.551 720.219 586.66 721.086C585.793 721.953 585.359 722.996 585.359 724.215C585.359 725.457 585.793 726.512 586.66 727.379C587.551 728.246 588.605 728.68 589.824 728.68H613.695ZM82.7656 833.824H73.5547C68.9609 833.824 64.7773 832.699 61.0039 830.449C57.2305 828.199 54.2188 825.188 51.9688 821.414C49.7188 817.641 48.5938 813.457 48.5938 808.863C48.5938 805.418 49.2383 802.184 50.5273 799.16C51.8398 796.137 53.6328 793.488 55.9062 791.215C58.1797 788.918 60.8281 787.125 63.8516 785.836C66.875 784.547 70.1094 783.902 73.5547 783.902H82.7656C86.7969 783.902 90.5234 784.781 93.9453 786.539C97.3906 788.297 100.273 790.676 102.594 793.676C104.914 796.676 106.578 800.637 107.586 805.559H95.457C94.332 802.324 92.6562 799.887 90.4297 798.246C88.2031 796.605 85.6484 795.785 82.7656 795.785H73.5547C71.75 795.785 70.0508 796.125 68.457 796.805C66.8867 797.484 65.5039 798.422 64.3086 799.617C63.1133 800.812 62.1758 802.207 61.4961 803.801C60.8164 805.371 60.4766 807.059 60.4766 808.863C60.4766 811.254 61.0625 813.445 62.2344 815.438C63.4062 817.406 64.9766 818.988 66.9453 820.184C68.9375 821.355 71.1406 821.941 73.5547 821.941H82.7656C84.5703 821.941 86.2578 821.602 87.8281 820.922C89.4219 820.242 90.8164 819.305 92.0117 818.109C93.4414 816.68 94.5898 814.699 95.457 812.168H107.586C106.297 818.215 103.906 822.996 100.414 826.512C98.1406 828.785 95.4922 830.578 92.4688 831.891C89.4453 833.18 86.2109 833.824 82.7656 833.824ZM165.137 833.824H115.25V783.902H165.137V795.785H127.133V801.129H165.137V813.012H127.133V821.906H165.137V833.824ZM225.219 833.824H213.336V813.012H185V833.824H173.117V783.902H185V801.129H213.336V783.902H225.219V833.824ZM266 833.824H256.789C252.195 833.824 248.012 832.699 244.238 830.449C240.465 828.199 237.453 825.188 235.203 821.414C232.953 817.641 231.828 813.457 231.828 808.863C231.828 805.418 232.473 802.184 233.762 799.16C235.074 796.137 236.867 793.488 239.141 791.215C241.414 788.918 244.062 787.125 247.086 785.836C250.109 784.547 253.344 783.902 256.789 783.902H266C270.031 783.902 273.758 784.781 277.18 786.539C280.625 788.297 283.508 790.676 285.828 793.676C288.148 796.676 289.812 800.637 290.82 805.559H278.691C277.566 802.324 275.891 799.887 273.664 798.246C271.438 796.605 268.883 795.785 266 795.785H256.789C254.984 795.785 253.285 796.125 251.691 796.805C250.121 797.484 248.738 798.422 247.543 799.617C246.348 800.812 245.41 802.207 244.73 803.801C244.051 805.371 243.711 807.059 243.711 808.863C243.711 811.254 244.297 813.445 245.469 815.438C246.641 817.406 248.211 818.988 250.18 820.184C252.172 821.355 254.375 821.941 256.789 821.941H266C267.805 821.941 269.492 821.602 271.062 820.922C272.656 820.242 274.051 819.305 275.246 818.109C276.676 816.68 277.824 814.699 278.691 812.168H290.82C289.531 818.215 287.141 822.996 283.648 826.512C281.375 828.785 278.727 830.578 275.703 831.891C272.68 833.18 269.445 833.824 266 833.824ZM331.25 833.824H322.039C317.445 833.824 313.262 832.699 309.488 830.449C305.715 828.199 302.703 825.188 300.453 821.414C298.203 817.641 297.078 813.457 297.078 808.863C297.078 805.418 297.723 802.184 299.012 799.16C300.324 796.137 302.117 793.488 304.391 791.215C306.664 788.918 309.312 787.125 312.336 785.836C315.359 784.547 318.594 783.902 322.039 783.902H331.25C335.844 783.902 340.027 785.027 343.801 787.277C347.574 789.504 350.586 792.516 352.836 796.312C355.086 800.086 356.211 804.27 356.211 808.863C356.211 812.309 355.555 815.543 354.242 818.566C352.953 821.566 351.172 824.215 348.898 826.512C346.625 828.785 343.977 830.578 340.953 831.891C337.93 833.18 334.695 833.824 331.25 833.824ZM331.25 821.941C333.055 821.941 334.742 821.602 336.312 820.922C337.906 820.242 339.301 819.305 340.496 818.109C341.691 816.914 342.629 815.531 343.309 813.961C343.988 812.367 344.328 810.668 344.328 808.863C344.328 806.449 343.742 804.258 342.57 802.289C341.398 800.297 339.816 798.715 337.824 797.543C335.855 796.371 333.664 795.785 331.25 795.785H322.039C320.234 795.785 318.535 796.125 316.941 796.805C315.371 797.484 313.988 798.422 312.793 799.617C311.598 800.812 310.66 802.207 309.98 803.801C309.301 805.371 308.961 807.059 308.961 808.863C308.961 811.254 309.547 813.445 310.719 815.438C311.891 817.406 313.461 818.988 315.43 820.184C317.422 821.355 319.625 821.941 322.039 821.941H331.25ZM375.828 833.824H363.945V783.867H399.699C402.723 783.867 405.465 784.605 407.926 786.082C410.41 787.559 412.379 789.539 413.832 792.023C415.309 794.484 416.047 797.227 416.047 800.25C416.047 802.5 415.625 804.621 414.781 806.613C413.938 808.582 412.766 810.316 411.266 811.816C409.766 813.293 408.02 814.465 406.027 815.332C404.059 816.176 401.949 816.598 399.699 816.598H375.828V833.824ZM399.699 804.68C400.941 804.68 401.996 804.246 402.863 803.379C403.73 802.512 404.164 801.457 404.164 800.215C404.164 798.996 403.73 797.953 402.863 797.086C401.996 796.219 400.941 795.785 399.699 795.785H375.828V804.68H399.699ZM475.32 833.824H463.438V813.012H435.102V833.824H423.219V783.902H435.102V801.129H463.438V783.902H475.32V833.824ZM516.102 833.824H506.891C502.297 833.824 498.113 832.699 494.34 830.449C490.566 828.199 487.555 825.188 485.305 821.414C483.055 817.641 481.93 813.457 481.93 808.863C481.93 805.418 482.574 802.184 483.863 799.16C485.176 796.137 486.969 793.488 489.242 791.215C491.516 788.918 494.164 787.125 497.188 785.836C500.211 784.547 503.445 783.902 506.891 783.902H516.102C520.695 783.902 524.879 785.027 528.652 787.277C532.426 789.504 535.438 792.516 537.688 796.312C539.938 800.086 541.062 804.27 541.062 808.863C541.062 812.309 540.406 815.543 539.094 818.566C537.805 821.566 536.023 824.215 533.75 826.512C531.477 828.785 528.828 830.578 525.805 831.891C522.781 833.18 519.547 833.824 516.102 833.824ZM516.102 821.941C517.906 821.941 519.594 821.602 521.164 820.922C522.758 820.242 524.152 819.305 525.348 818.109C526.543 816.914 527.48 815.531 528.16 813.961C528.84 812.367 529.18 810.668 529.18 808.863C529.18 806.449 528.594 804.258 527.422 802.289C526.25 800.297 524.668 798.715 522.676 797.543C520.707 796.371 518.516 795.785 516.102 795.785H506.891C505.086 795.785 503.387 796.125 501.793 796.805C500.223 797.484 498.84 798.422 497.645 799.617C496.449 800.812 495.512 802.207 494.832 803.801C494.152 805.371 493.812 807.059 493.812 808.863C493.812 811.254 494.398 813.445 495.57 815.438C496.742 817.406 498.312 818.988 500.281 820.184C502.273 821.355 504.477 821.941 506.891 821.941H516.102ZM560.68 833.824H548.797V783.902H594.219V795.785H560.68V833.824ZM631.555 833.824H622.344C617.75 833.824 613.566 832.699 609.793 830.449C606.02 828.199 603.008 825.188 600.758 821.414C598.508 817.641 597.383 813.457 597.383 808.863C597.383 805.418 598.027 802.184 599.316 799.16C600.629 796.137 602.422 793.488 604.695 791.215C606.969 788.918 609.617 787.125 612.641 785.836C615.664 784.547 618.898 783.902 622.344 783.902H631.555C636.148 783.902 640.332 785.027 644.105 787.277C647.879 789.504 650.891 792.516 653.141 796.312C655.391 800.086 656.516 804.27 656.516 808.863C656.516 812.309 655.859 815.543 654.547 818.566C653.258 821.566 651.477 824.215 649.203 826.512C646.93 828.785 644.281 830.578 641.258 831.891C638.234 833.18 635 833.824 631.555 833.824ZM631.555 821.941C633.359 821.941 635.047 821.602 636.617 820.922C638.211 820.242 639.605 819.305 640.801 818.109C641.996 816.914 642.934 815.531 643.613 813.961C644.293 812.367 644.633 810.668 644.633 808.863C644.633 806.449 644.047 804.258 642.875 802.289C641.703 800.297 640.121 798.715 638.129 797.543C636.16 796.371 633.969 795.785 631.555 795.785H622.344C620.539 795.785 618.84 796.125 617.246 796.805C615.676 797.484 614.293 798.422 613.098 799.617C611.902 800.812 610.965 802.207 610.285 803.801C609.605 805.371 609.266 807.059 609.266 808.863C609.266 811.254 609.852 813.445 611.023 815.438C612.195 817.406 613.766 818.988 615.734 820.184C617.727 821.355 619.93 821.941 622.344 821.941H631.555ZM108.184 909.824H96.0898L87.9688 889.012H61.8828V909.824H50V859.902H61.8828V877.129H68.0352L86.9492 859.902H103.965L85.0508 877.129H95.3516L108.184 909.824ZM163.941 909.824H114.055V859.902H163.941V871.785H125.938V877.129H163.941V889.012H125.938V897.906H163.941V909.824ZM183.805 909.824H171.922V859.867H207.676C210.699 859.867 213.441 860.605 215.902 862.082C218.387 863.559 220.355 865.539 221.809 868.023C223.285 870.484 224.023 873.227 224.023 876.25C224.023 878.5 223.602 880.621 222.758 882.613C221.914 884.582 220.742 886.316 219.242 887.816C217.742 889.293 215.996 890.465 214.004 891.332C212.035 892.176 209.926 892.598 207.676 892.598H183.805V909.824ZM207.676 880.68C208.918 880.68 209.973 880.246 210.84 879.379C211.707 878.512 212.141 877.457 212.141 876.215C212.141 874.996 211.707 873.953 210.84 873.086C209.973 872.219 208.918 871.785 207.676 871.785H183.805V880.68H207.676ZM258.617 909.824H229.543V897.941H258.617C261.828 897.941 264.617 896.934 266.984 894.918C269.375 892.879 270.77 890.816 271.168 888.73H240.758L229.438 859.902H241.531L248.176 876.848H271.695V859.902H283.578V884.863C283.578 888.895 282.699 892.621 280.941 896.043C279.184 899.465 276.805 902.336 273.805 904.656C271.695 906.273 269.352 907.539 266.773 908.453C264.195 909.367 261.477 909.824 258.617 909.824ZM326.996 909.824H291.242V859.902H314.586C316.133 859.902 317.609 860.125 319.016 860.57C321.289 861.32 323.246 862.527 324.887 864.191C326.551 865.832 327.746 867.789 328.473 870.062C328.941 871.469 329.176 872.934 329.176 874.457C329.176 876.004 329.129 876.895 329.035 877.129C330.09 877.129 331.566 877.562 333.465 878.43C335.387 879.273 337.086 880.434 338.562 881.91C340.062 883.41 341.234 885.156 342.078 887.148C342.922 889.117 343.344 891.227 343.344 893.477C343.344 896.477 342.605 899.219 341.129 901.703C339.676 904.164 337.707 906.133 335.223 907.609C332.762 909.086 330.02 909.824 326.996 909.824ZM314.586 877.832C315.336 877.832 315.969 877.574 316.484 877.059C317.023 876.52 317.293 875.77 317.293 874.809C317.293 873.848 317.023 873.109 316.484 872.594C315.969 872.055 315.336 871.785 314.586 871.785H303.125V877.832H314.586ZM326.996 897.941C328.238 897.941 329.293 897.508 330.16 896.641C331.027 895.75 331.461 894.695 331.461 893.477C331.461 892.352 331.098 891.379 330.371 890.559C329.668 889.738 328.754 889.234 327.629 889.047C327.441 889.023 319.273 889.012 303.125 889.012V897.941H326.996ZM409.156 909.824H397.062L391.824 896.465H364.191L358.953 909.824H346.859L366.441 859.902H389.574L409.156 909.824ZM387.148 884.547L382.156 871.785H373.859L368.832 884.547H387.148ZM467.656 909.824H455.773V889.012H427.438V909.824H415.555V859.902H427.438V877.129H455.773V859.902H467.656V909.824ZM527.773 909.824H515.891V889.012H487.555V909.824H475.672V859.902H487.555V877.129H515.891V859.902H527.773V909.824ZM591.055 909.824H579.172V892.562H566.762L548.516 909.824H531.57L550.449 892.035C548.527 891.73 546.301 890.312 543.77 887.781C542.27 886.281 541.098 884.547 540.254 882.578C539.41 880.586 538.988 878.465 538.988 876.215C538.988 873.215 539.715 870.484 541.168 868.023C542.645 865.539 544.613 863.559 547.074 862.082C549.559 860.605 552.312 859.867 555.336 859.867H591.055V909.824ZM579.172 880.68V871.785H555.301C554.082 871.785 553.027 872.219 552.137 873.086C551.27 873.953 550.836 874.996 550.836 876.215C550.836 877.457 551.27 878.512 552.137 879.379C553.027 880.246 554.082 880.68 555.301 880.68H579.172Z" fill="#0D0D0D" style="fill:#0D0D0D;fill:color(display-p3 0.0500 0.0500 0.0500);fill-opacity:1;"/>
</g>
<defs>
<filter id="filter0_b_234_795" x="-32.8125" y="626.592" width="769.328" height="363.232" filterUnits="userSpaceOnUse" color-interpolation-filters="sRGB">
<feFlood flood-opacity="0" result="BackgroundImageFix"/>
<feGaussianBlur in="BackgroundImageFix" stdDeviation="40"/>
<feComposite in2="SourceAlpha" operator="in" result="effect1_backgroundBlur_234_795"/>
<feBlend mode="normal" in="SourceGraphic" in2="effect1_backgroundBlur_234_795" result="shape"/>
</filter>
</defs>
</svg>
